M48
;Layer_Color=9474304
;FILE_FORMAT=2:5
INCH,TZ
;TYPE=PLATED
T1F00S00C0.01378
T3F00S00C0.02500
T4F00S00C0.03000
T5F00S00C0.03543
T6F00S00C0.04000
T7F00S00C0.05709
;TYPE=NON_PLATED
T8F00S00C0.01772
T9F00S00C0.02559
T11F00S00C0.13780
T12F00S00C0.15748
%
T01
X151051Y155760
X231044Y152180
X237051Y152260
X243051
X249051
X313551
X319551
X325551
X331551
X337551
X343551
X343621Y143471
X346051Y126760
X341051
X324051Y123260
X319551Y143760
X681425Y153051
X697925
X682425Y129709
Y122209
X680925Y168551
X697925
Y183551
X692425Y195551
X692925Y206551
X680925
X681425Y201551
X677925
X674425
X672925Y207551
X676925Y217051
X679925Y228051
Y235051
X676425Y248551
X666925Y250551
Y254551
Y260551
Y264551
X681425Y257551
X692425
X692143Y268334
X677925Y289551
Y293551
X678425Y298551
X674425
X714925Y293551
Y289551
X701518Y237959
X695425Y225051
X637106Y177187
X634425Y172551
X639787Y171189
X639925Y163051
X645425Y167551
X606425Y173551
X598425
X591425
X584425
X577425
X570425
X563425
X558925Y176051
X552925
X548925Y173551
X541925
X534925
X528425Y176051
X522425
X513925Y173551
X506925
X499925
X492925
X485925
X478925
X471925
X478425Y163051
X493425
X492925Y196051
X496925
X500925
X504922Y196044
X508925Y196051
X512922Y196044
X516925Y196051
X520925
X514425Y199051
X506425
X498987Y199032
X495425Y204051
X486119Y205424
X486925Y211551
X500925Y210051
X508547Y209785
X516547
X523925Y212551
X528425
X532611Y222855
X541111
X549111
Y231356
Y239355
Y247356
X541111
Y239355
Y231356
X532611
Y239355
Y247356
Y255855
X541111
X549111
Y264355
Y272356
X541111
Y264355
X532611
Y272356
Y280855
X541111
X549111
Y289355
X541111
X532611
X524111
X516111
Y280855
X508925Y281551
Y285051
X505925Y288051
X501925
X497925Y287051
X496425Y283551
X492925
X489425
X485925
X482425
X478925
X475425
X471925
Y291551
X478925
X485925
X492925
X488925Y302051
X485925Y299551
X478925
X471925
X471879Y307671
X478925Y307551
Y276051
X475425
X482425Y272551
X485925Y276051
X489425
X492925
X496425
X499425Y271051
X499422Y266680
X499425Y262551
X499571Y257905
X492780Y268160
X485925Y268051
X478925
X471925
X480425Y260051
X477522Y247455
X492925Y241551
X491925Y228463
X499425Y223051
X502925
X506925
Y227551
X508819Y232079
X506925Y236551
X516111Y239355
X524111
Y247356
X516111
Y255855
X524111
Y264355
Y272356
X516111
Y264355
X508925Y274051
Y277551
X524111Y280855
X523925Y298551
X519425
X510925
X516425Y307551
X521425Y312051
X529512Y312140
X532425Y298551
X541425Y299051
X545425
X549925
X554425
X558425
X568425Y299551
Y291551
X576425
Y299551
Y307551
X568425
X584425
Y303551
Y299551
Y295551
Y291551
Y287551
Y274551
Y270551
Y266551
Y262551
Y247551
Y243551
Y239551
Y235551
Y231551
Y227551
Y223551
Y219551
Y215551
X585425Y208551
X582425
X588425
X584425Y204051
Y200051
Y196051
X580425
X576425
X572425
X568425
X564425
X568425Y204051
X576425
Y215551
X568425
Y223551
X576425
Y231551
X568425
Y239551
X576425
X565925Y245051
X557925
X568925Y253553
X565744Y262835
X565925Y266551
X565805Y271063
X557925Y266551
Y284051
X565925
X606425Y287551
Y294551
Y301551
Y308551
X584425Y311551
X606425Y273551
X608425Y253051
X614925Y257894
Y248051
Y238551
X611825Y208551
X619425
X623425
X606425Y195551
Y188551
Y181551
X558925Y188051
X552941Y188080
X549425Y196051
X545425
X541425
X537425
X533425
X534199Y203777
X541425Y204051
X549425
X554218Y212635
X558425Y212551
X524111Y222855
X516111
Y231356
X524111
X522425Y188051
X528425
X488925Y196051
X484925
X480925
X476925
X472925
X468925
X471769Y206081
X471925Y218051
X473925Y225551
X476606Y222930
X481744Y225530
X481425Y201551
X464925Y200051
Y204051
Y208051
Y212051
Y216051
Y220051
Y224051
Y228051
Y232051
Y236051
Y240051
Y244051
Y248051
Y252051
Y256051
Y260051
Y264051
Y268051
Y272051
Y276051
X461425
X457925
X454425
X450925Y274051
X447925Y272051
X442925Y271051
X443925Y268051
X436925
X437925Y272051
X435425Y276551
X429925Y276051
Y283551
X435425Y283051
X437925Y287051
X436925Y291551
X429925
Y299551
X436925
X443925
X450925
X457925
X464925
Y295551
Y291551
Y287551
Y283551
X461425
X457925
X454425
X450925Y285051
X447925Y287051
X442925Y288551
X443925Y291551
X450925
X458523Y290954
X457925Y307551
X450925
X443925
X436925
X429925
X464925
Y303551
Y311551
X468425Y283551
Y276051
X457925Y268051
X450925
Y260051
X443925
X436925
X429925
Y252051
X436925
X443925
X450925
X457925
Y244051
X450925
X443925
X436925
X429925
Y236051
X436925
X443925
X450925
X457925
Y228051
X450925
X443925
X436925
X429925
Y220051
X436925
X443925
X450925
X457925
Y212051
X450925
X443925
X436925
X429925
Y204051
X436925
X443925
X450925
X457925
Y196051
X450925
X443925
X436925
X429925
Y173551
X436925
X443925
X450925
X457925
X464925
X463547Y162927
X464925Y196051
X457925Y260051
X429925Y268051
X387570Y267681
Y259681
Y251681
Y243681
Y235681
Y227681
Y219681
Y211681
Y203681
Y195681
Y187681
Y179681
X379570
X371570
Y171681
X363570
Y179681
Y187681
X371570
X379570
Y195681
X371570
X363570
Y203681
X371570
X379570
Y211681
X371570
X363570
Y219681
X371570
X379570
Y227681
X371570
X363570
Y235681
X371570
X379570
Y243681
X371570
X363570
Y251681
X371570
X379570
Y259681
X371570
X363570
Y267681
X371570
X379570
Y275681
X371570
X363570
Y283681
X371570
X379570
X387570
Y275681
Y291681
Y299681
X387551Y307760
X367551
X363551
X359551
X355551
X351551
X347551
Y298760
X347570Y291681
Y283681
Y275681
X339570
X331570
Y283681
Y291681
X323570
Y283681
Y275681
X315570
Y267681
Y259681
Y251681
Y243681
X323570
Y251681
X331570
Y243681
Y235681
X323570
X316332
Y227681
X323570
Y219681
X316332
Y211681
X323570
Y203681
X316332Y203738
X323627Y195738
X331570Y195681
Y203681
Y211681
Y219681
Y227681
X339570
Y235681
Y243681
Y251681
Y259681
X331570
X323570
Y267681
X331570
X339570
X347570
Y259681
Y251681
Y243681
Y235681
Y227681
Y219681
X339570
Y211681
Y203681
Y195681
Y187681
X331570
Y179681
X339570
Y171681
X343570
X347570
X351570
X355570
Y175681
Y179681
Y183681
Y187681
Y191681
Y195681
Y199681
Y203681
Y207681
Y211681
Y215681
Y219681
Y223681
Y227681
Y231681
Y235681
Y239681
Y243681
Y247681
Y251681
Y255681
Y259681
Y263681
Y267681
Y271681
Y275681
Y279681
Y283681
Y287681
Y291681
Y295681
X355051Y298760
X359551
X363551
X367551
X363570Y291681
X371570
X379570
X355551Y311760
X347570Y211681
Y203681
Y195681
Y187681
Y179681
X335570Y171681
X337551Y163260
X331551
X325551
X319551
X313551
X343551
X311370Y171681
X307570
X303570
X299570
X295570
X291570
X287570
X283570
X279570
X275570
X271570
X267570
X263570
X259570
X255570
X252232
X251551Y179260
X244051
X236051
X228242Y179264
X227570Y171681
X223570
X219570
X215570
X211570
X207570
X203570
X199570
X195570
X191570
X187551Y171760
Y175760
Y179760
Y183760
Y187760
Y191760
Y195760
X195551
Y187760
X203551
X211551
X219551
Y179760
X211551
X203551
X195551
Y203941
Y211760
X187551
Y207760
Y203941
X178551Y201260
X167551
Y216760
Y222760
X178551
Y216760
X187551Y219941
Y223760
Y227760
Y231760
Y235760
Y243760
Y247760
Y255760
Y259760
X195551
Y267760
X187551
Y275760
Y279760
Y283760
Y287760
Y291760
Y295760
Y299579
Y307941
Y311760
X203551Y307760
X205026Y299760
X207051Y287760
X206806Y271812
X206927Y263890
X207051Y240260
Y216760
Y208760
Y200760
X206806Y193172
X195551Y219941
X178551Y234260
Y240260
X167551
Y252760
X178551
Y265760
Y271760
X191811Y252275
X232965Y272260
X236508
X240051
Y276197
Y279740
X236508
Y276197
X232965
Y279740
X304551Y279760
X307570Y283681
Y291681
X304551Y295260
X306551Y298260
X310551
Y308260
X306551
X304551Y271760
X304501Y248158
X304551Y240260
Y224760
Y216760
Y193260
X307570Y187681
X299570
X291570
Y179681
X299570
X307570
X249142Y163226
X243051Y163260
X237051
X231051
X158870Y159760
X156732Y156260
X153508Y159760
X148146
X143733Y173578
X151270Y177260
X147551Y194260
X137051Y200760
X126051Y203136
X123051Y211760
X129051
X127551Y226260
X123732
X119551
X118051Y237760
X121413
X114551
X111189
X129051
X133551
X143197Y234752
X151551Y236260
X154197Y246406
X149051Y247760
Y259260
X143051
X136551Y260260
Y263760
Y267260
X135551Y256260
X132551
X129551
X121051Y248760
X103551Y253260
X104051Y271260
Y281260
X108551
X125175Y284072
X137051Y281260
X142051Y278260
Y273760
X139051Y303260
X139551Y308260
X149051
X126551Y303260
X134093Y223783
X143051Y218760
X151551Y220760
X128051Y181760
X124551Y184760
X128051Y170260
X144051Y317760
X138870Y343260
X138551Y353760
Y358760
X122051
Y343260
Y328260
X153551Y339260
X137551Y382102
Y389602
X165051Y349760
X165551Y339260
X187551Y339760
Y335760
Y331760
Y327760
Y323760
Y319760
Y315760
X195551
X203551
Y323760
X211551
X219551
X227551
X235551
X243551
X251551
X259551
X267551
X275551
X283551
X291551
X299551
X307551
Y315760
Y331760
X299551
X291551
X283551
X275551
X267551
X259551
X251551
X243551
X235551
X227551
X219551
X211551
X203551
X195551
Y323760
Y339760
X199551
X203551
X207551
X211551
X215551
X219551
X223551
X227551
X231551
X235551
X239551
X243551
X247551
X251551
X255551
X259551
X263551
X267551
X271551
X275551
X279551
X283551
X287551
X291551
X295551
X299551
X303551
X307551
X311551
X311075Y444634
X291075Y444510
X254256Y441155
X254242Y453840
X214075Y453634
Y441134
X168863Y441483
X169075Y453634
X191551Y339760
X162524Y318287
X156551Y318260
X323551Y315760
X331551
Y323760
X323551
Y331760
X315551
Y339760
X319551
X323551
X327551
X331551
X335551
X339551
X343551
X347551
X351551
X355551
Y335760
Y331760
Y327760
Y323760
Y319760
Y315760
X363551
Y323760
X371551
Y315760
X379551
X387551
X387757Y323854
Y331854
Y339854
X379757
X371757
X363757
Y331854
X371757
X379757
Y323854
X347551Y323760
Y315760
Y331760
X339551
X331551
X316551Y367041
Y381760
X373615Y451663
X434575Y444510
X467075Y463634
X464925Y337551
X457925
X450925
X443925
X436925
X429925
Y315551
X436925
X443925
X450925
X457925
X464925
X468925
X472925
X476925
X480925
X484925
X488925
X485925Y323551
X491925Y323732
Y334551
X485925
X478925Y337551
X471925
X476399Y363363
X501425Y363551
X497497Y343848
X509862Y344044
X503925Y334551
Y323551
X505925Y315551
X509925
X516925
X521417Y315560
X515925Y323551
Y334551
X527925
X533925
Y323551
X527925
X539925
X545954Y323559
X551925Y323551
X557925
X564425Y315551
X568425
X572425
X576425
X580425
X584425
X606425
Y322551
Y329551
Y337551
X598425
X591425
X584425
X577425
X570425
X563425
X536925Y312551
X501425Y314051
X618425Y383551
Y388051
X594848Y441483
X595059Y453634
X640059
Y441134
X680240Y441155
X680227Y453840
X717059Y444510
X737059Y444634
X682425Y389551
Y382051
X673925Y346551
X676298Y341528
X665425Y335551
X665669Y331795
X693425Y333551
Y338051
X694425Y347051
X799599Y451663
X860559Y444510
X893059Y463634
X899059Y499134
X908559
X897559Y517634
X889559
X890059Y526134
X897559
X899059Y553634
X908559
X876059
X866559
X849559Y537634
Y521134
X850559Y510634
X844559
X838559
Y499634
X844559
X850559
X866559Y499134
X876059
X816059Y501634
X810059
X804059
X804088Y521725
X812427Y525458
X815559Y519634
X818559Y513634
Y531634
Y537634
X807059Y543634
X803059Y573634
X799559Y577134
X796654Y580496
X793878Y583177
X792778Y618815
X793059Y624134
X810059Y611634
X814059Y614134
X815018Y608998
X820059Y609134
X884059Y608015
Y617453
X893059Y624134
X896059Y607634
X909059
X915059Y610134
X909059Y617134
X816059Y473134
X810059
X804059
X789059Y476634
X783199Y475014
X789059Y487634
X779608Y488751
X777788Y494113
X770059Y487634
X764059
Y476634
X775836Y475014
X779559Y475134
X749559Y492634
X738559
X736814Y483696
X730059Y477134
X724059
X710059
X704059
X695559Y473634
X691559
X681059Y489134
X674059
X677559Y497134
X668059Y506634
Y517634
X657559
Y502634
X637559Y497134
X641059Y489134
X634059
X630559Y502634
X628059Y506634
Y517634
X633559Y526634
X641559
X673559
X681559
X707858Y551433
Y558134
Y564835
X714559
Y571535
X721260
X727961
Y564835
X734661
Y558134
Y551433
X727961
Y544732
X721260
X714559
Y551433
X721260
Y558134
Y564835
X727961Y558134
X714559
X684240Y585023
X675103Y583221
X674984Y588272
X663559Y584634
X659559Y573487
X647059Y573134
X632059
Y593634
X647059Y593134
X690059Y597134
X694282Y597411
X699559Y610634
X705559
X708559Y619134
X696559
X719059Y617134
X723059
X732559Y610634
X740559
X743559Y619134
X768559Y622134
X777559Y624784
X777533Y617505
X777559Y609634
X771559Y610634
X778559Y603134
Y598634
X778595Y594266
X772559Y583134
X655559Y473634
X651559
X619059Y597634
X489075Y610134
X483075Y607634
Y617134
X470075Y607634
X473075Y553634
X482575
X471575Y526134
Y517634
X473075Y499134
X482575
X450075
X440575
X424575Y499634
X418575
X412575
Y510634
X418575
X424575
X423575Y521134
Y537634
X392575
Y531634
X386443Y525458
X389575Y519634
X392575Y513634
X390075Y501634
X384075
X378075
X378104Y521725
X381075Y543634
X377075Y573634
X373575Y577134
X370670Y580496
X367894Y583177
X346575Y583134
X352610Y594266
X352575Y598634
Y603134
X351575Y609634
X345575Y610634
X351549Y617505
X351575Y624784
X342575Y622134
X367075Y624134
X366794Y618815
X384075Y611634
X388075Y614134
X389034Y608998
X394075Y609134
X458075Y608015
Y617453
X467075Y624134
X450075Y553634
X440575
X464075Y526134
X463575Y517634
X390075Y473134
X384075
X378075
X363075Y476634
X357214Y475014
X353575Y475134
X349852Y475014
X338075Y476634
Y487634
X344075
X353624Y488751
X351804Y494113
X363075Y487634
X323575Y492634
X312575
X314575Y610634
X317575Y619134
X306575Y610634
X297075Y617134
X293075
X282575Y619134
X279575Y610634
X273575
X270575Y619134
X268298Y597411
X264075Y597134
X258256Y585023
X249118Y583221
X249000Y588272
X237575Y584634
X233575Y573487
X221075Y573134
X206075
Y593634
X221075Y593134
X193075Y597634
X207575Y526634
X215575
X202075Y517634
Y506634
X204575Y502634
X211575Y497134
X215075Y489134
X208075
X225575Y473634
X229575
X231575Y502634
X242075Y506634
Y517634
X231575
X247575Y526634
X255575
X251575Y497134
X248075Y489134
X255075
X265575Y473634
X269575
X278075Y477134
X284075
X298075
X304075
X310830Y483696
X308677Y551433
Y558134
Y564835
X301976
Y571535
X295276
X288575
Y564835
X281874
Y558134
Y551433
X288575
Y544732
X295276
X301976
Y551433
Y558134
X295276
Y564835
Y551433
X288575Y558134
X283075Y625634
X294075Y626634
X291363Y643750
X280575Y641634
X277575Y650134
Y657634
X263075Y655134
X264575Y651134
X257575Y655134
X240075Y654634
Y665634
X246575Y678634
X255075Y681134
X264075Y681634
Y672634
X280575
X284075
X292075
X296075
X300075
X306179Y672530
X309089Y667857
X308575Y658134
X306075Y641634
X296936Y685770
X295075Y689634
X300575
X283075Y685634
X283575Y703634
X275575
X272575Y695134
X246575Y726634
Y731634
X242575Y738134
Y741134
Y744134
X243075Y752634
Y756634
Y760634
X234575Y752634
X234075Y748134
X229575Y747634
X224575
X219540Y747669
X219181Y764587
X224181
X229216Y764552
X227575Y777634
X233575
X221075
X197575Y761634
Y749634
Y743634
X228075Y737634
X287075Y764134
X292575Y774134
X299575
X167075Y772134
X163575
X160075
Y778134
X163575
X167075
Y762134
X163575
X160075
X208461Y662520
X222075Y652634
X246575Y646134
Y640134
X333575Y639134
Y643134
Y647134
Y651134
Y655134
Y659134
Y663134
X331075Y678134
X339575Y675134
X353575Y686634
X359075Y692634
X347075Y708134
Y719134
X354575Y723634
X352075Y732634
X347075Y739634
X338575Y746134
Y751134
Y756134
Y761134
Y766134
X339075Y771134
Y775634
Y780134
X326575Y779634
Y775634
Y771634
X324575Y733134
X324590Y714619
X338075Y713634
X366575Y723634
X375575Y731634
X380075
X379075Y738634
X373075
X364055Y742752
X360317Y744490
X379075Y753134
X394260Y726158
X396300Y723133
X394196Y720255
X424491Y720550
X435075Y719134
Y726134
Y698134
Y691134
X424638Y691983
X424637Y678002
X424636Y706195
X378575Y650134
X367075
Y644003
Y638134
Y630134
X378575
X351575Y638134
X351256Y644665
X342575Y626134
X333575Y635134
X586059Y762134
X589559
X593059
Y772134
X589559
X586059
Y778134
X589559
X593059
X623559Y761634
Y749634
Y743634
X645524Y747669
X650559Y747634
X655559
X660059Y748134
X660559Y752634
X669059
Y756634
Y760634
X668559Y744134
Y741134
Y738134
X672559Y731634
Y726634
X654059Y737634
X655200Y764552
X650165Y764587
X645165
X647059Y777634
X653559
X659559
X718559Y774134
X725559
X713059Y764134
X752559Y771634
Y775634
Y779634
X765059Y780134
Y775634
Y771134
X764559Y766134
Y761134
Y756134
Y751134
Y746134
X773059Y739634
X778059Y732634
X780559Y723634
X773059Y719134
Y708134
X764059Y713634
X750574Y714619
X750559Y733134
X757059Y678134
X765559Y675134
X759559Y663134
Y659134
Y655134
Y651134
Y647134
Y643134
Y639134
Y635134
X768559Y626134
X777559Y638134
X777240Y644665
X779559Y686634
X726559Y689634
X721059
X722921Y685770
X709059Y685634
X710059Y672634
X706559
X718059
X722059
X726059
X732163Y672530
X735074Y667857
X734559Y658134
X732059Y641634
X717347Y643750
X706559Y641634
X703559Y650134
Y657634
X689059Y655134
X690559Y651134
X683559Y655134
X666059Y654634
Y665634
X672559Y678634
X681059Y681134
X690059Y681634
Y672634
X698559Y695134
X701559Y703634
X709559
X709059Y625634
X720059Y626634
X672559Y640134
Y646134
X648059Y652634
X634445Y662520
X793059Y650134
Y644003
Y638134
Y630134
X804559
Y650134
X785059Y692634
X792559Y723634
X801559Y731634
X806059
X805059Y738634
X799059
X790039Y742752
X786301Y744490
X805059Y753134
X820245Y726158
X822284Y723133
X820181Y720255
X850475Y720550
X861059Y719134
Y726134
Y698134
Y691134
X850622Y691983
X850622Y678002
X850620Y706195
X827559Y795134
X725559Y782134
X718559
X712559Y783634
X697059Y813634
X681559
X666059
X650559
X635059
Y790634
X650559
X666059
X619586Y813603
X593059Y788134
X589559
X586059
X401575Y795134
X299575Y782134
X292575
X286575Y783634
X271075Y813634
X255575
X240075
X224575
X209075
X193602Y813603
X209075Y790634
X224575
X240075
X167075Y788134
X163575
X160075
T03
X419075Y771713
X845059
Y781555
X846559Y800634
X851559
X856559
Y805634
X851559
X846559
X861559
Y800634
X866559
Y805634
X440575
X435575
X430575
Y800634
X425575
Y805634
X420575
Y800634
X435575
X440575
X419075Y781555
T04
X381575Y435386
Y443260
Y451134
Y459008
X807559
Y451134
Y443260
Y435386
X364173Y775157
X790158
Y785157
Y795157
Y805157
X364173
Y795157
Y785157
T05
X146535Y137795
X156535
X166535
X176535
X186535
X196535
X206535
X216535
X236535
X246535
X256535
X266535
X276535
X286535
X296535
X306535
X513441Y137795
X523441
X533441
X543441
X553441
X563441
X573441
X583441
X603441
X613441
X623441
X633441
X643441
X653441
X663441
X673441
X146535Y374016
X156535
X166535
X176535
X186535
X196535
X206535
X216535
X236535
X246535
X256535
X266535
X276535
X286535
X296535
X306535
X513441Y374016
X523441
X533441
X543441
X553441
X563441
X573441
X583441
X603441
X613441
X623441
X633441
X643441
X653441
X663441
X673441
X839370Y552520
Y562520
Y572520
Y582520
Y592520
Y602520
Y612520
Y622520
X603150
Y612520
Y602520
Y592520
Y582520
Y572520
Y562520
Y552520
X413386Y552520
Y562520
Y572520
Y582520
Y592520
Y602520
Y612520
Y622520
X177165
Y612520
Y602520
Y592520
Y582520
Y572520
Y562520
Y552520
Y642520
Y652520
Y662520
Y672520
Y682520
Y692520
Y702520
Y712520
X413386Y712520
Y702520
Y692520
Y682520
Y672520
Y662520
Y652520
Y642520
X603150
Y652520
Y662520
Y672520
Y682520
Y692520
Y702520
Y712520
X839370Y712520
Y702520
Y692520
Y682520
Y672520
Y662520
Y652520
Y642520
T06
X567717Y800000
X583465
X599213
X173228
X157480
X141732
T07
X555905Y499803
Y513583
X569685
Y499803
Y527362
Y541142
Y554921
Y568701
X555905
Y554921
Y541142
Y527362
X143701
Y541142
Y554921
Y568701
X129921
Y554921
Y541142
Y527362
Y513583
Y499803
X143701
Y513583
X143701Y676968
Y690748
X143701Y704528
X129921
Y718307
Y732087
X143701
Y718307
Y745866
X129921
Y690748
Y676968
X446850Y676968
Y690748
Y704528
Y718307
Y732087
Y745866
X460630
Y732087
Y718307
Y704528
Y690748
Y676968
X555905Y676968
Y690748
X569685
Y676968
X569685Y704528
X555905
Y718307
Y732087
X569685
Y718307
Y745866
X555905
X872835Y745866
Y732087
Y718307
Y704528
Y690748
Y676968
X886614
Y690748
Y704528
Y718307
Y732087
Y745866
T08
X79783Y118110
X82284
X84784
X89784
X92283
X94784
X161646
X164146
X166646
X169146
X171646
X174146
X176646
X238709
X241209
X243709
X246209
X248709
X251209
X253709
X315772
X318272
X320772
X323272
X325772
X328272
X330772
X397488
X399988
X402488
X407488
X409988
X412488
X417488
X419988
X422488
X489350
X491850
X494350
X496850
X499350
X501850
X504350
X566413
X568913
X571413
X573913
X576413
X578913
X581413
X643476
X645976
X648476
X650976
X653476
X655976
X658476
X725193
X727693
X730193
X735193
X737693
X740193
X745193
X747693
X750193
X755193
X757693
X760193
X765193
X767693
X770193
X775193
X777693
X780193
X785193
X787693
X790193
X795193
X797693
X800193
X805193
X807693
X810193
X815193
X817693
X820193
X825193
X827693
X830193
X835193
X837693
X840193
X845193
X847693
X850193
X855193
X857693
X860193
X865193
X867693
X870193
X875193
X877693
X880193
X885193
X887693
X890193
X895193
X897693
X900193
X905193
X907693
X910193
X915193
X917693
X920193
X925193
X927693
X930193
X935193
X937693
X940193
X94784Y393701
X92283
X89784
X84784
X82284
X79783
Y425984
X82284
X84784
X89784
X92283
X94784
X181331
X183831
X186331
X188831
X191331
X193831
X196331
X243886
X246386
X248886
X251386
X253886
X256386
X258886
X253709Y393701
X251209
X248709
X246209
X243709
X241209
X238709
X176646
X174146
X171646
X169146
X166646
X164146
X161646
X315772
X318272
X320772
X323272
X325772
X328272
X330772
X331665Y425984
X334165
X336665
X339165
X341665
X344165
X346665
X394220
X396721
X399220
X401721
X404220
X406720
X409221
X409988Y393701
X407488
X402488
X399988
X397488
X412488
X417488
X419988
X422488
X489350
X491850
X494350
X496850
X499350
X501850
X504350
X505768Y425984
X508268
X510768
X515768
X518268
X520768
X500768
X498268
X495768
X566413Y393701
X568913
X571413
X573913
X576413
X578913
X581413
X607315Y425984
X609815
X612315
X614815
X617315
X619815
X622315
X669870
X672370
X674870
X677370
X679870
X682370
X684870
X658476Y393701
X655976
X653476
X650976
X648476
X645976
X643476
X725193
X727693
X730193
X735193
X737693
X740193
X745193
X747693
X750193
X755193
X757693
X760193
X765193
X767693
X770193
X775193
X777693
X780193
X772650Y425984
X770150
X767650
X765150
X762650
X760150
X757650
X785193Y393701
X787693
X790193
X795193
X797693
X800193
X805193
X807693
X810193
X815193
X817693
X820193
X825193
X827693
X830193
X835193
X837693
X840193
X845193
X847693
X850193
X855193
X857693
X860193
X865193
X867693
X870193
X875193
X877693
X880193
X885193
X887693
X890193
X895193
X897693
X900193
X905193
X907693
X910193
X915193
X917693
X920193
X925193
X927693
X930193
X935193
X934252Y425984
X936752
X931752
X926752
X924252
X921752
X835205
X832705
X830205
X827705
X825205
X822705
X820205
X937693Y393701
X940193
X936752Y819685
X934252
X931752
X926752
X924252
X921752
X835205
X832705
X830205
X827705
X825205
X822705
X820205
X772650
X770150
X767650
X765150
X762650
X760150
X757650
X684870
X682370
X679870
X677370
X674870
X672370
X669870
X622315
X619815
X617315
X614815
X612315
X609815
X607315
X520768
X518268
X515768
X510768
X508268
X505768
X500768
X498268
X495768
X409221
X406720
X404220
X401721
X399220
X396721
X394220
X346665
X344165
X341665
X339165
X336665
X334165
X331665
X258886
X256386
X253886
X251386
X248886
X246386
X243886
X196331
X193831
X191331
X188831
X186331
X183831
X181331
X94784
X92283
X89784
X84784
X82284
X79783
T09
X136398Y190110
X338189Y463980
X764173
X683579Y321701
T11
X118110Y137795
X374016
X445961Y137795
X701866
X118110Y374016
Y445669
X374016Y374016
X445961Y374016
X472441Y445669
X544095
X701866Y374016
X898425Y445669
X839370Y485039
X603150
X413386
X177165
Y740945
X413386
X603150
X839370
X898425Y800000
X544095
X472441
X118110
T12
X547244Y472244
Y596260
X121260
Y472244
X121260Y649409
Y773425
X469291
X547244
Y649409
X469291
X895276
Y773425
M30
