G04*
G04 #@! TF.GenerationSoftware,Altium Limited,Altium Designer,21.1.1 (26)*
G04*
G04 Layer_Color=16711935*
%FSLAX25Y25*%
%MOIN*%
G70*
G04*
G04 #@! TF.SameCoordinates,5C4D5550-4BF6-4518-9220-46D804948AFA*
G04*
G04*
G04 #@! TF.FilePolarity,Negative*
G04*
G01*
G75*
%ADD106R,0.36000X0.10000*%
%ADD107R,0.10000X0.36000*%
%ADD108C,0.11811*%
%ADD173R,0.06706X0.06706*%
%ADD174R,0.06706X0.06706*%
%ADD178R,0.00800X0.00800*%
%ADD179C,0.06706*%
%ADD180C,0.20472*%
%ADD181C,0.00800*%
%ADD182O,0.07099X0.03950*%
%ADD183C,0.06800*%
%ADD184C,0.04800*%
%ADD185O,0.03950X0.07099*%
%ADD186C,0.17748*%
%ADD187C,0.09461*%
%ADD188C,0.03162*%
%ADD189C,0.78740*%
%ADD190R,0.20485X0.20485*%
G36*
X249894Y289189D02*
Y262417D01*
X222728D01*
Y289189D01*
X249894D01*
D02*
G37*
%LPC*%
G36*
X230809Y270291D02*
X242207D01*
Y274114D01*
X242207Y281610D01*
X230809Y281610D01*
X230809Y270291D01*
D02*
G37*
%LPD*%
D106*
X758500Y105000D02*
D03*
X459925Y182051D02*
D03*
X360051Y354260D02*
D03*
D107*
X177165Y521134D02*
D03*
X603150D02*
D03*
D108*
X85039Y833071D02*
D03*
X932283D02*
D03*
X85039Y104724D02*
D03*
X932283D02*
D03*
X596925Y328051D02*
D03*
X434925Y182051D02*
D03*
Y329051D02*
D03*
X597425Y182551D02*
D03*
X190575Y533134D02*
D03*
X110575Y754634D02*
D03*
X285575Y810134D02*
D03*
X480575Y667134D02*
D03*
X616559Y533134D02*
D03*
X536559Y754634D02*
D03*
X711559Y810134D02*
D03*
X906559Y667134D02*
D03*
X385051Y354260D02*
D03*
Y157760D02*
D03*
X174051Y353260D02*
D03*
Y158760D02*
D03*
D173*
X603441Y137795D02*
D03*
X583441D02*
D03*
X603441Y374016D02*
D03*
X583441D02*
D03*
X216535Y137795D02*
D03*
X236535D02*
D03*
X216535Y374016D02*
D03*
X236535D02*
D03*
D174*
X413386Y642520D02*
D03*
X177165Y622520D02*
D03*
X413386D02*
D03*
X177165Y642520D02*
D03*
X839370D02*
D03*
X603150Y622520D02*
D03*
X839370D02*
D03*
X603150Y642520D02*
D03*
D178*
X877693Y393701D02*
D03*
X880193D02*
D03*
X885193D02*
D03*
X887693D02*
D03*
X890193D02*
D03*
X875193D02*
D03*
X895193D02*
D03*
X910193D02*
D03*
X907693D02*
D03*
X905193D02*
D03*
X900193D02*
D03*
X897693D02*
D03*
X915193D02*
D03*
X930193D02*
D03*
X927693D02*
D03*
X925193D02*
D03*
X920193D02*
D03*
X917693D02*
D03*
X935193D02*
D03*
X940193D02*
D03*
X937693D02*
D03*
X757693D02*
D03*
X760193D02*
D03*
X765193D02*
D03*
X767693D02*
D03*
X770193D02*
D03*
X755193D02*
D03*
X775193D02*
D03*
X790193D02*
D03*
X787693D02*
D03*
X785193D02*
D03*
X780193D02*
D03*
X777693D02*
D03*
X795193D02*
D03*
X810193D02*
D03*
X807693D02*
D03*
X805193D02*
D03*
X800193D02*
D03*
X797693D02*
D03*
X815193D02*
D03*
X830193D02*
D03*
X827693D02*
D03*
X825193D02*
D03*
X820193D02*
D03*
X817693D02*
D03*
X835193D02*
D03*
X850193D02*
D03*
X847693D02*
D03*
X845193D02*
D03*
X840193D02*
D03*
X837693D02*
D03*
X855193D02*
D03*
X870193D02*
D03*
X867693D02*
D03*
X865193D02*
D03*
X860193D02*
D03*
X857693D02*
D03*
Y118110D02*
D03*
X860193D02*
D03*
X865193D02*
D03*
X867693D02*
D03*
X870193D02*
D03*
X855193D02*
D03*
X875193D02*
D03*
X890193D02*
D03*
X887693D02*
D03*
X885193D02*
D03*
X880193D02*
D03*
X877693D02*
D03*
X895193D02*
D03*
X910193D02*
D03*
X907693D02*
D03*
X905193D02*
D03*
X900193D02*
D03*
X897693D02*
D03*
X915193D02*
D03*
X930193D02*
D03*
X927693D02*
D03*
X925193D02*
D03*
X920193D02*
D03*
X917693D02*
D03*
X935193D02*
D03*
X940193D02*
D03*
X937693D02*
D03*
X837693D02*
D03*
X840193D02*
D03*
X845193D02*
D03*
X847693D02*
D03*
X850193D02*
D03*
X835193D02*
D03*
X817693D02*
D03*
X820193D02*
D03*
X825193D02*
D03*
X827693D02*
D03*
X830193D02*
D03*
X815193D02*
D03*
X797693D02*
D03*
X800193D02*
D03*
X805193D02*
D03*
X807693D02*
D03*
X810193D02*
D03*
X795193D02*
D03*
X777693D02*
D03*
X780193D02*
D03*
X785193D02*
D03*
X787693D02*
D03*
X790193D02*
D03*
X775193D02*
D03*
X757693D02*
D03*
X760193D02*
D03*
X765193D02*
D03*
X767693D02*
D03*
X770193D02*
D03*
X755193D02*
D03*
X79783D02*
D03*
X84784D02*
D03*
X89784D02*
D03*
X94784D02*
D03*
X82284D02*
D03*
D03*
X92283D02*
D03*
X79783Y819685D02*
D03*
X84784D02*
D03*
X89784D02*
D03*
X94784D02*
D03*
X82284D02*
D03*
D03*
X92283D02*
D03*
X936752D02*
D03*
X931752D02*
D03*
X926752D02*
D03*
X921752D02*
D03*
X934252D02*
D03*
D03*
X924252D02*
D03*
X936752Y425984D02*
D03*
X931752D02*
D03*
X926752D02*
D03*
X921752D02*
D03*
X934252D02*
D03*
D03*
X924252D02*
D03*
X735193Y118110D02*
D03*
X730193D02*
D03*
X727693D02*
D03*
X725193D02*
D03*
X750193D02*
D03*
X747693D02*
D03*
X745193D02*
D03*
X740193D02*
D03*
X747693Y393701D02*
D03*
X727693D02*
D03*
X737693D02*
D03*
D03*
X750193D02*
D03*
X745193D02*
D03*
X740193D02*
D03*
X735193D02*
D03*
X730193D02*
D03*
X725193D02*
D03*
X737693Y118110D02*
D03*
X79783Y393701D02*
D03*
X84784D02*
D03*
X89784D02*
D03*
X94784D02*
D03*
X82284D02*
D03*
D03*
X92283D02*
D03*
X79783Y425984D02*
D03*
X84784D02*
D03*
X89784D02*
D03*
X94784D02*
D03*
X82284D02*
D03*
D03*
X92283D02*
D03*
X196331Y819685D02*
D03*
D03*
X193831D02*
D03*
D03*
X191331D02*
D03*
D03*
X188831D02*
D03*
D03*
X186331D02*
D03*
D03*
X183831D02*
D03*
D03*
X181331D02*
D03*
D03*
X409221D02*
D03*
D03*
X406720D02*
D03*
D03*
X404220D02*
D03*
D03*
X401721D02*
D03*
D03*
X399220D02*
D03*
D03*
X396721D02*
D03*
D03*
X394220D02*
D03*
D03*
X331665D02*
D03*
D03*
X334165D02*
D03*
D03*
X336665D02*
D03*
D03*
X339165D02*
D03*
D03*
X341665D02*
D03*
D03*
X344165D02*
D03*
D03*
X346665D02*
D03*
D03*
X258886D02*
D03*
X256386D02*
D03*
D03*
X253886D02*
D03*
D03*
X251386D02*
D03*
D03*
X248886D02*
D03*
D03*
X246386D02*
D03*
D03*
X243886D02*
D03*
D03*
X622315D02*
D03*
D03*
X619815D02*
D03*
D03*
X617315D02*
D03*
D03*
X614815D02*
D03*
D03*
X612315D02*
D03*
D03*
X609815D02*
D03*
D03*
X607315D02*
D03*
D03*
X835205D02*
D03*
D03*
X832705D02*
D03*
D03*
X830205D02*
D03*
D03*
X827705D02*
D03*
D03*
X825205D02*
D03*
D03*
X822705D02*
D03*
D03*
X820205D02*
D03*
D03*
X757650D02*
D03*
D03*
X760150D02*
D03*
D03*
X762650D02*
D03*
D03*
X765150D02*
D03*
D03*
X767650D02*
D03*
D03*
X770150D02*
D03*
D03*
X772650D02*
D03*
D03*
X684870D02*
D03*
X682370D02*
D03*
D03*
X679870D02*
D03*
D03*
X677370D02*
D03*
D03*
X674870D02*
D03*
D03*
X672370D02*
D03*
D03*
X669870D02*
D03*
D03*
X622315Y425984D02*
D03*
D03*
X619815D02*
D03*
D03*
X617315D02*
D03*
D03*
X614815D02*
D03*
D03*
X612315D02*
D03*
D03*
X609815D02*
D03*
D03*
X607315D02*
D03*
D03*
X835205D02*
D03*
D03*
X832705D02*
D03*
D03*
X830205D02*
D03*
D03*
X827705D02*
D03*
D03*
X825205D02*
D03*
D03*
X822705D02*
D03*
D03*
X820205D02*
D03*
D03*
X757650D02*
D03*
D03*
X760150D02*
D03*
D03*
X762650D02*
D03*
D03*
X765150D02*
D03*
D03*
X767650D02*
D03*
D03*
X770150D02*
D03*
D03*
X772650D02*
D03*
D03*
X684870D02*
D03*
X682370D02*
D03*
D03*
X679870D02*
D03*
D03*
X677370D02*
D03*
D03*
X674870D02*
D03*
D03*
X672370D02*
D03*
D03*
X669870D02*
D03*
D03*
X243886D02*
D03*
D03*
X246386D02*
D03*
D03*
X248886D02*
D03*
D03*
X251386D02*
D03*
D03*
X253886D02*
D03*
D03*
X256386D02*
D03*
D03*
X258886D02*
D03*
X346665D02*
D03*
D03*
X344165D02*
D03*
D03*
X341665D02*
D03*
D03*
X339165D02*
D03*
D03*
X336665D02*
D03*
D03*
X334165D02*
D03*
D03*
X331665D02*
D03*
D03*
X518268Y819685D02*
D03*
X498268D02*
D03*
X508268D02*
D03*
D03*
X520768D02*
D03*
X515768D02*
D03*
X510768D02*
D03*
X505768D02*
D03*
X500768D02*
D03*
X495768D02*
D03*
X518268Y425984D02*
D03*
X498268D02*
D03*
X508268D02*
D03*
D03*
X520768D02*
D03*
X515768D02*
D03*
X510768D02*
D03*
X505768D02*
D03*
X500768D02*
D03*
X495768D02*
D03*
X394220D02*
D03*
D03*
X396721D02*
D03*
D03*
X399220D02*
D03*
D03*
X401721D02*
D03*
D03*
X404220D02*
D03*
D03*
X406720D02*
D03*
D03*
X409221D02*
D03*
D03*
X181331D02*
D03*
D03*
X183831D02*
D03*
D03*
X186331D02*
D03*
D03*
X188831D02*
D03*
D03*
X191331D02*
D03*
D03*
X193831D02*
D03*
D03*
X196331D02*
D03*
D03*
X409988Y118110D02*
D03*
X397488Y393701D02*
D03*
X402488D02*
D03*
X407488D02*
D03*
X412488D02*
D03*
X417488D02*
D03*
X422488D02*
D03*
X409988D02*
D03*
D03*
X399988D02*
D03*
X419988D02*
D03*
X412488Y118110D02*
D03*
X417488D02*
D03*
X419988D02*
D03*
X422488D02*
D03*
X397488D02*
D03*
X399988D02*
D03*
X402488D02*
D03*
X407488D02*
D03*
X330772D02*
D03*
D03*
X328272D02*
D03*
D03*
X325772D02*
D03*
D03*
X323272D02*
D03*
D03*
X320772D02*
D03*
D03*
X318272D02*
D03*
D03*
X315772D02*
D03*
D03*
X243709D02*
D03*
D03*
X241209D02*
D03*
D03*
X238709D02*
D03*
D03*
X248709D02*
D03*
D03*
X251209D02*
D03*
D03*
X253709D02*
D03*
D03*
X246209D02*
D03*
X176646D02*
D03*
D03*
X174146D02*
D03*
D03*
X171646D02*
D03*
D03*
X169146D02*
D03*
D03*
X166646D02*
D03*
D03*
X164146D02*
D03*
D03*
X161646D02*
D03*
D03*
X330772Y393701D02*
D03*
D03*
X328272D02*
D03*
D03*
X325772D02*
D03*
D03*
X323272D02*
D03*
D03*
X320772D02*
D03*
D03*
X318272D02*
D03*
D03*
X315772D02*
D03*
D03*
X243709D02*
D03*
D03*
X241209D02*
D03*
D03*
X238709D02*
D03*
D03*
X248709D02*
D03*
D03*
X251209D02*
D03*
D03*
X253709D02*
D03*
D03*
X246209D02*
D03*
X176646D02*
D03*
D03*
X174146D02*
D03*
D03*
X171646D02*
D03*
D03*
X169146D02*
D03*
D03*
X166646D02*
D03*
D03*
X164146D02*
D03*
D03*
X161646D02*
D03*
D03*
X489350D02*
D03*
D03*
X491850D02*
D03*
D03*
X494350D02*
D03*
D03*
X496850D02*
D03*
D03*
X499350D02*
D03*
D03*
X501850D02*
D03*
D03*
X504350D02*
D03*
D03*
X573913D02*
D03*
X581413D02*
D03*
D03*
X578913D02*
D03*
D03*
X576413D02*
D03*
D03*
X566413D02*
D03*
D03*
X568913D02*
D03*
D03*
X571413D02*
D03*
D03*
X643476D02*
D03*
D03*
X645976D02*
D03*
D03*
X648476D02*
D03*
D03*
X650976D02*
D03*
D03*
X653476D02*
D03*
D03*
X655976D02*
D03*
D03*
X658476D02*
D03*
D03*
X489350Y118110D02*
D03*
D03*
X491850D02*
D03*
D03*
X494350D02*
D03*
D03*
X496850D02*
D03*
D03*
X499350D02*
D03*
D03*
X501850D02*
D03*
D03*
X504350D02*
D03*
D03*
X573913D02*
D03*
X581413D02*
D03*
D03*
X578913D02*
D03*
D03*
X576413D02*
D03*
D03*
X566413D02*
D03*
D03*
X568913D02*
D03*
D03*
X571413D02*
D03*
D03*
X643476D02*
D03*
D03*
X645976D02*
D03*
D03*
X648476D02*
D03*
D03*
X650976D02*
D03*
D03*
X653476D02*
D03*
D03*
X655976D02*
D03*
D03*
X658476D02*
D03*
D03*
D179*
X613441Y137795D02*
D03*
X623441D02*
D03*
X633441D02*
D03*
X643441D02*
D03*
X653441D02*
D03*
X663441D02*
D03*
X673441D02*
D03*
X573441D02*
D03*
X563441D02*
D03*
X553441D02*
D03*
X543441D02*
D03*
X533441D02*
D03*
X523441D02*
D03*
X513441D02*
D03*
X613441Y374016D02*
D03*
X623441D02*
D03*
X633441D02*
D03*
X643441D02*
D03*
X653441D02*
D03*
X663441D02*
D03*
X673441D02*
D03*
X573441D02*
D03*
X563441D02*
D03*
X553441D02*
D03*
X543441D02*
D03*
X533441D02*
D03*
X523441D02*
D03*
X513441D02*
D03*
X413386Y652520D02*
D03*
Y662520D02*
D03*
Y672520D02*
D03*
Y682520D02*
D03*
Y692520D02*
D03*
Y702520D02*
D03*
Y712520D02*
D03*
X177165Y612520D02*
D03*
Y602520D02*
D03*
Y592520D02*
D03*
Y582520D02*
D03*
Y572520D02*
D03*
Y562520D02*
D03*
Y552520D02*
D03*
X413386Y612520D02*
D03*
Y602520D02*
D03*
Y592520D02*
D03*
Y582520D02*
D03*
Y572520D02*
D03*
Y562520D02*
D03*
Y552520D02*
D03*
X177165Y652520D02*
D03*
Y662520D02*
D03*
Y672520D02*
D03*
Y682520D02*
D03*
Y692520D02*
D03*
Y702520D02*
D03*
Y712520D02*
D03*
X839370Y652520D02*
D03*
Y662520D02*
D03*
Y672520D02*
D03*
Y682520D02*
D03*
Y692520D02*
D03*
Y702520D02*
D03*
Y712520D02*
D03*
X603150Y612520D02*
D03*
Y602520D02*
D03*
Y592520D02*
D03*
Y582520D02*
D03*
Y572520D02*
D03*
Y562520D02*
D03*
Y552520D02*
D03*
X839370Y612520D02*
D03*
Y602520D02*
D03*
Y592520D02*
D03*
Y582520D02*
D03*
Y572520D02*
D03*
Y562520D02*
D03*
Y552520D02*
D03*
X603150Y652520D02*
D03*
Y662520D02*
D03*
Y672520D02*
D03*
Y682520D02*
D03*
Y692520D02*
D03*
Y702520D02*
D03*
Y712520D02*
D03*
X206535Y137795D02*
D03*
X196535D02*
D03*
X186535D02*
D03*
X176535D02*
D03*
X166535D02*
D03*
X156535D02*
D03*
X146535D02*
D03*
X246535D02*
D03*
X256535D02*
D03*
X266535D02*
D03*
X276535D02*
D03*
X286535D02*
D03*
X296535D02*
D03*
X306535D02*
D03*
X206535Y374016D02*
D03*
X196535D02*
D03*
X186535D02*
D03*
X176535D02*
D03*
X166535D02*
D03*
X156535D02*
D03*
X146535D02*
D03*
X246535D02*
D03*
X256535D02*
D03*
X266535D02*
D03*
X276535D02*
D03*
X286535D02*
D03*
X296535D02*
D03*
X306535D02*
D03*
D180*
X445961Y374016D02*
D03*
X701866D02*
D03*
X445961Y137795D02*
D03*
X701866D02*
D03*
X118110Y800000D02*
D03*
Y445669D02*
D03*
X472441Y800000D02*
D03*
Y445669D02*
D03*
X177165Y740945D02*
D03*
Y485039D02*
D03*
X413386Y740945D02*
D03*
Y485039D02*
D03*
X544095Y800000D02*
D03*
Y445669D02*
D03*
X898425Y800000D02*
D03*
Y445669D02*
D03*
X603150Y740945D02*
D03*
Y485039D02*
D03*
X839370Y740945D02*
D03*
Y485039D02*
D03*
X374016Y137795D02*
D03*
X118110D02*
D03*
X374016Y374016D02*
D03*
X118110D02*
D03*
D181*
X683579Y321701D02*
D03*
X338189Y463980D02*
D03*
X764173D02*
D03*
X136398Y190110D02*
D03*
D182*
X688500Y319614D02*
D03*
Y352134D02*
D03*
X711925Y353551D02*
D03*
Y318197D02*
D03*
X131476Y192197D02*
D03*
Y159677D02*
D03*
X108051Y158260D02*
D03*
Y193614D02*
D03*
D183*
X141732Y800000D02*
D03*
X157480D02*
D03*
X173228D02*
D03*
X419075Y781555D02*
D03*
Y771713D02*
D03*
X364173Y805157D02*
D03*
Y795157D02*
D03*
Y785157D02*
D03*
Y775157D02*
D03*
X381575Y435386D02*
D03*
Y443260D02*
D03*
Y451134D02*
D03*
Y459008D02*
D03*
X567717Y800000D02*
D03*
X583465D02*
D03*
X599213D02*
D03*
X845059Y781555D02*
D03*
Y771713D02*
D03*
X790158Y805157D02*
D03*
Y795157D02*
D03*
Y785157D02*
D03*
Y775157D02*
D03*
X807559Y435386D02*
D03*
Y443260D02*
D03*
Y451134D02*
D03*
Y459008D02*
D03*
D184*
X430575Y805634D02*
D03*
Y800634D02*
D03*
X425575D02*
D03*
Y805634D02*
D03*
X420575D02*
D03*
Y800634D02*
D03*
X435575D02*
D03*
Y805634D02*
D03*
X440575D02*
D03*
Y800634D02*
D03*
X856559Y805634D02*
D03*
Y800634D02*
D03*
X851559D02*
D03*
Y805634D02*
D03*
X846559D02*
D03*
Y800634D02*
D03*
X861559D02*
D03*
Y805634D02*
D03*
X866559D02*
D03*
Y800634D02*
D03*
D185*
X334685Y435634D02*
D03*
X370039D02*
D03*
X368622Y459059D02*
D03*
X336102D02*
D03*
X760669Y435634D02*
D03*
X796024D02*
D03*
X794606Y459059D02*
D03*
X762087D02*
D03*
D186*
X469291Y773425D02*
D03*
Y649409D02*
D03*
X121260Y472244D02*
D03*
Y596260D02*
D03*
X121260Y649409D02*
D03*
Y773425D02*
D03*
X895276D02*
D03*
Y649409D02*
D03*
X547244Y472244D02*
D03*
Y596260D02*
D03*
X547244Y649409D02*
D03*
Y773425D02*
D03*
D187*
X446850Y676968D02*
D03*
Y690748D02*
D03*
Y704528D02*
D03*
Y718307D02*
D03*
Y732087D02*
D03*
Y745866D02*
D03*
X460630Y676968D02*
D03*
Y690748D02*
D03*
Y704528D02*
D03*
Y718307D02*
D03*
Y732087D02*
D03*
Y745866D02*
D03*
X143701Y568701D02*
D03*
Y554921D02*
D03*
Y541142D02*
D03*
Y527362D02*
D03*
Y513583D02*
D03*
Y499803D02*
D03*
X129921Y568701D02*
D03*
Y554921D02*
D03*
Y541142D02*
D03*
Y527362D02*
D03*
Y513583D02*
D03*
Y499803D02*
D03*
X143701Y745866D02*
D03*
Y732087D02*
D03*
Y718307D02*
D03*
X143701Y704528D02*
D03*
X143701Y690748D02*
D03*
Y676968D02*
D03*
X129921Y745866D02*
D03*
X129921Y732087D02*
D03*
Y718307D02*
D03*
Y704528D02*
D03*
X129921Y690748D02*
D03*
Y676968D02*
D03*
X872835Y676968D02*
D03*
Y690748D02*
D03*
Y704528D02*
D03*
Y718307D02*
D03*
Y732087D02*
D03*
Y745866D02*
D03*
X886614Y676968D02*
D03*
Y690748D02*
D03*
Y704528D02*
D03*
Y718307D02*
D03*
Y732087D02*
D03*
Y745866D02*
D03*
X569685Y568701D02*
D03*
Y554921D02*
D03*
Y541142D02*
D03*
Y527362D02*
D03*
Y513583D02*
D03*
Y499803D02*
D03*
X555905Y568701D02*
D03*
Y554921D02*
D03*
Y541142D02*
D03*
Y527362D02*
D03*
Y513583D02*
D03*
Y499803D02*
D03*
X569685Y745866D02*
D03*
Y732087D02*
D03*
Y718307D02*
D03*
X569685Y704528D02*
D03*
X569685Y690748D02*
D03*
Y676968D02*
D03*
X555905Y745866D02*
D03*
X555905Y732087D02*
D03*
Y718307D02*
D03*
Y704528D02*
D03*
X555905Y690748D02*
D03*
Y676968D02*
D03*
D188*
X236508Y272260D02*
D03*
X232965D02*
D03*
X240051D02*
D03*
X236508Y279740D02*
D03*
X232965D02*
D03*
X240051D02*
D03*
Y276197D02*
D03*
X232965D02*
D03*
X236508D02*
D03*
D189*
X295276Y558134D02*
D03*
X721260D02*
D03*
D190*
X244094D02*
D03*
X346457D02*
D03*
X670079D02*
D03*
X772441D02*
D03*
M02*
