G04*
G04 #@! TF.GenerationSoftware,Altium Limited,Altium Designer,21.1.1 (26)*
G04*
G04 Layer_Color=8388736*
%FSLAX25Y25*%
%MOIN*%
G70*
G04*
G04 #@! TF.SameCoordinates,F28D7FE3-0C23-4916-8856-21DE0BB7123B*
G04*
G04*
G04 #@! TF.FilePolarity,Negative*
G04*
G01*
G75*
%ADD44R,0.00984X0.01181*%
%ADD45R,0.01378X0.01181*%
%ADD106R,0.36000X0.10000*%
%ADD107R,0.10000X0.36000*%
%ADD108C,0.11811*%
%ADD109R,0.09461X0.04934*%
%ADD110R,0.04934X0.04737*%
%ADD111R,0.03162X0.02769*%
%ADD112R,0.05131X0.05131*%
%ADD113R,0.06706X0.03950*%
%ADD114R,0.03950X0.06706*%
%ADD115R,0.04737X0.13792*%
%ADD116R,0.13792X0.04737*%
%ADD117R,0.15761X0.04737*%
%ADD118R,0.04737X0.15761*%
%ADD119R,0.02769X0.03556*%
%ADD120R,0.03800X0.04800*%
%ADD121R,0.05500X0.07900*%
%ADD122R,0.07800X0.04300*%
%ADD123R,0.01981X0.03438*%
%ADD124R,0.04800X0.03800*%
%ADD125R,0.02450X0.04737*%
%ADD126R,0.03162X0.04737*%
%ADD127R,0.03950X0.02769*%
%ADD128R,0.08674X0.04737*%
%ADD129R,0.08674X0.03162*%
%ADD130R,0.08674X0.24422*%
%ADD131R,0.07887X0.14580*%
%ADD132R,0.04737X0.07099*%
%ADD133R,0.04737X0.04737*%
%ADD134R,0.07099X0.04737*%
%ADD135R,0.03556X0.01981*%
%ADD136R,0.06509X0.01981*%
%ADD137R,0.09304X0.09698*%
%ADD138R,0.03556X0.01784*%
%ADD139R,0.06706X0.09461*%
%ADD140R,0.10642X0.07493*%
%ADD141R,0.09698X0.09304*%
%ADD142R,0.07887X0.23241*%
%ADD143R,0.02800X0.07300*%
%ADD144R,0.05918X0.11824*%
%ADD145R,0.07493X0.10642*%
%ADD146R,0.03162X0.05131*%
%ADD147R,0.06300X0.07300*%
%ADD148R,0.04343X0.03950*%
%ADD149R,0.11824X0.05918*%
%ADD150R,0.08674X0.06509*%
%ADD151R,0.05131X0.03162*%
%ADD152R,0.14580X0.07887*%
%ADD153R,0.04737X0.03162*%
%ADD154R,0.03950X0.04343*%
%ADD155R,0.02572X0.05131*%
%ADD156R,0.01981X0.03556*%
%ADD157R,0.02769X0.03950*%
%ADD158R,0.03438X0.01981*%
%ADD159R,0.01981X0.05524*%
%ADD160R,0.05524X0.01981*%
%ADD161R,0.05918X0.01981*%
%ADD162R,0.02375X0.06312*%
%ADD163R,0.01981X0.02769*%
%ADD164R,0.05100X0.05600*%
%ADD165R,0.03792X0.05800*%
%ADD166R,0.14461X0.04737*%
%ADD167R,0.04737X0.14461*%
%ADD168R,0.08674X0.04737*%
%ADD169R,0.10249X0.08674*%
%ADD170R,0.09461X0.04737*%
%ADD171R,0.11430X0.09068*%
%ADD172O,0.12060X0.06706*%
%ADD173O,0.06706X0.12060*%
%ADD174C,0.01587*%
%ADD175R,0.06706X0.06706*%
%ADD176R,0.06706X0.06706*%
%ADD177R,0.02178X0.05524*%
%ADD178R,0.00800X0.00800*%
%ADD179C,0.06706*%
%ADD180C,0.20472*%
%ADD181C,0.00800*%
%ADD182O,0.07099X0.03950*%
%ADD183C,0.06800*%
%ADD184C,0.04800*%
%ADD185O,0.03950X0.07099*%
%ADD186C,0.17748*%
%ADD187C,0.09461*%
%ADD188C,0.03162*%
G36*
X759232Y715996D02*
X757854D01*
Y717571D01*
X759232D01*
Y715996D01*
D02*
G37*
G36*
X757264D02*
X755886D01*
Y717571D01*
X757264D01*
Y715996D01*
D02*
G37*
G36*
X333248D02*
X331870D01*
Y717571D01*
X333248D01*
Y715996D01*
D02*
G37*
G36*
X331279D02*
X329902D01*
Y717571D01*
X331279D01*
Y715996D01*
D02*
G37*
G36*
X761496Y715799D02*
X759724D01*
Y717374D01*
X761496D01*
Y715799D01*
D02*
G37*
G36*
X755394D02*
X753622D01*
Y717374D01*
X755394D01*
Y715799D01*
D02*
G37*
G36*
X335512D02*
X333740D01*
Y717374D01*
X335512D01*
Y715799D01*
D02*
G37*
G36*
X329410D02*
X327638D01*
Y717374D01*
X329410D01*
Y715799D01*
D02*
G37*
G36*
X761496Y713831D02*
X759724D01*
Y715406D01*
X761496D01*
Y713831D01*
D02*
G37*
G36*
X755394D02*
X753622D01*
Y715406D01*
X755394D01*
Y713831D01*
D02*
G37*
G36*
X335512D02*
X333740D01*
Y715406D01*
X335512D01*
Y713831D01*
D02*
G37*
G36*
X329410D02*
X327638D01*
Y715406D01*
X329410D01*
Y713831D01*
D02*
G37*
G36*
X761496Y711862D02*
X759724D01*
Y713437D01*
X761496D01*
Y711862D01*
D02*
G37*
G36*
X755394D02*
X753622D01*
Y713437D01*
X755394D01*
Y711862D01*
D02*
G37*
G36*
X335512D02*
X333740D01*
Y713437D01*
X335512D01*
Y711862D01*
D02*
G37*
G36*
X329410D02*
X327638D01*
Y713437D01*
X329410D01*
Y711862D01*
D02*
G37*
G36*
X761496Y709894D02*
X759724D01*
Y711469D01*
X761496D01*
Y709894D01*
D02*
G37*
G36*
X755394D02*
X753622D01*
Y711469D01*
X755394D01*
Y709894D01*
D02*
G37*
G36*
X335512D02*
X333740D01*
Y711469D01*
X335512D01*
Y709894D01*
D02*
G37*
G36*
X329410D02*
X327638D01*
Y711469D01*
X329410D01*
Y709894D01*
D02*
G37*
G36*
X759232Y709697D02*
X757854D01*
Y711272D01*
X759232D01*
Y709697D01*
D02*
G37*
G36*
X757264D02*
X755886D01*
Y711272D01*
X757264D01*
Y709697D01*
D02*
G37*
G36*
X333248D02*
X331870D01*
Y711272D01*
X333248D01*
Y709697D01*
D02*
G37*
G36*
X331279D02*
X329902D01*
Y711272D01*
X331279D01*
Y709697D01*
D02*
G37*
G36*
X360930Y345260D02*
Y345191D01*
X360949D01*
X360949Y340435D01*
X360930D01*
X360930Y309087D01*
X372051D01*
Y297433D01*
X360983D01*
X360983Y166569D01*
X360942D01*
Y166555D01*
X182365Y166555D01*
Y166608D01*
X182338D01*
X182338Y299260D01*
X187073Y299260D01*
X187073Y171332D01*
X356226Y171332D01*
X356226Y297433D01*
X341051D01*
Y309087D01*
X356173D01*
X356173Y340435D01*
X187073Y340434D01*
X187074Y307137D01*
X182338Y307137D01*
X182338Y340434D01*
X182335D01*
X182335Y345191D01*
X182338D01*
Y345209D01*
X187073Y345209D01*
Y345191D01*
X356173Y345191D01*
Y345260D01*
X360930Y345260D01*
D02*
G37*
G36*
X311051Y297433D02*
X292051D01*
Y309087D01*
X311051D01*
Y297433D01*
D02*
G37*
G36*
X589670Y320863D02*
X589675D01*
Y283051D01*
X584925D01*
Y316192D01*
X464425D01*
Y285551D01*
X498841D01*
Y273898D01*
X464425D01*
Y195643D01*
X589687D01*
X589687Y190551D01*
X459738D01*
Y190924D01*
X459717D01*
Y273898D01*
X448925D01*
Y285551D01*
X459717D01*
Y320856D01*
X459720D01*
Y320884D01*
X589670D01*
Y320863D01*
D02*
G37*
G36*
X241992Y270414D02*
X230992D01*
Y281414D01*
X241992D01*
Y270414D01*
D02*
G37*
G36*
X589675Y212551D02*
X584925D01*
Y277051D01*
X589675D01*
Y212551D01*
D02*
G37*
G36*
X603925Y176051D02*
X426425D01*
Y188051D01*
X591925D01*
Y323051D01*
X426425D01*
Y335051D01*
X603925D01*
Y176051D01*
D02*
G37*
G36*
X393551Y348260D02*
X179051D01*
Y163760D01*
X393551D01*
Y151760D01*
X167051D01*
Y360260D01*
X393551D01*
Y348260D01*
D02*
G37*
D44*
X330591Y716784D02*
D03*
X332559D02*
D03*
Y710484D02*
D03*
X330591D02*
D03*
X756575Y716784D02*
D03*
X758543D02*
D03*
Y710484D02*
D03*
X756575D02*
D03*
D45*
X334626Y716587D02*
D03*
Y714618D02*
D03*
Y712650D02*
D03*
Y710681D02*
D03*
X328524D02*
D03*
Y712650D02*
D03*
Y714618D02*
D03*
Y716587D02*
D03*
X760610D02*
D03*
Y714618D02*
D03*
Y712650D02*
D03*
Y710681D02*
D03*
X754508D02*
D03*
Y712650D02*
D03*
Y714618D02*
D03*
Y716587D02*
D03*
D106*
X758500Y105000D02*
D03*
X459925Y182051D02*
D03*
X360051Y354260D02*
D03*
D107*
X177165Y521134D02*
D03*
X603150D02*
D03*
D108*
X85039Y833071D02*
D03*
X932283D02*
D03*
X85039Y104724D02*
D03*
X932283D02*
D03*
X596925Y328051D02*
D03*
X434925Y182051D02*
D03*
Y329051D02*
D03*
X597425Y182551D02*
D03*
X190575Y533134D02*
D03*
X110575Y754634D02*
D03*
X285575Y810134D02*
D03*
X480575Y667134D02*
D03*
X616559Y533134D02*
D03*
X536559Y754634D02*
D03*
X711559Y810134D02*
D03*
X906559Y667134D02*
D03*
X385051Y354260D02*
D03*
Y157760D02*
D03*
X174051Y353260D02*
D03*
Y158760D02*
D03*
D109*
X442921Y285531D02*
D03*
Y273917D02*
D03*
X377953Y297453D02*
D03*
Y309067D02*
D03*
D110*
X448925Y279724D02*
D03*
X371949Y303260D02*
D03*
D111*
X482512Y279720D02*
D03*
Y275783D02*
D03*
X471873Y279720D02*
D03*
Y275783D02*
D03*
X350551Y303197D02*
D03*
Y299260D02*
D03*
D112*
X511905Y268307D02*
D03*
X528441Y276575D02*
D03*
X520173D02*
D03*
X511905D02*
D03*
X536709D02*
D03*
X544976D02*
D03*
X553244D02*
D03*
X528441Y268307D02*
D03*
X520173D02*
D03*
X536709D02*
D03*
X544976D02*
D03*
X553244D02*
D03*
Y226969D02*
D03*
Y235236D02*
D03*
Y243504D02*
D03*
Y251772D02*
D03*
Y260039D02*
D03*
Y284842D02*
D03*
X544976Y226969D02*
D03*
Y235236D02*
D03*
Y243504D02*
D03*
Y251772D02*
D03*
Y260039D02*
D03*
Y284842D02*
D03*
X536709Y226969D02*
D03*
Y235236D02*
D03*
Y243504D02*
D03*
Y251772D02*
D03*
Y260039D02*
D03*
Y284842D02*
D03*
X528441Y226969D02*
D03*
Y235236D02*
D03*
Y243504D02*
D03*
Y251772D02*
D03*
Y260039D02*
D03*
Y284842D02*
D03*
X520173Y226969D02*
D03*
Y235236D02*
D03*
Y243504D02*
D03*
Y251772D02*
D03*
Y260039D02*
D03*
Y284842D02*
D03*
X511905Y226969D02*
D03*
Y235236D02*
D03*
Y243504D02*
D03*
Y251772D02*
D03*
Y260039D02*
D03*
Y284842D02*
D03*
D113*
X503244Y240748D02*
D03*
X561905D02*
D03*
Y284055D02*
D03*
Y279724D02*
D03*
Y275394D02*
D03*
Y271063D02*
D03*
Y266732D02*
D03*
Y262402D02*
D03*
Y258071D02*
D03*
Y253740D02*
D03*
Y249409D02*
D03*
Y245079D02*
D03*
Y236417D02*
D03*
Y232087D02*
D03*
Y227756D02*
D03*
X503244D02*
D03*
Y232087D02*
D03*
Y236417D02*
D03*
Y245079D02*
D03*
Y249409D02*
D03*
Y253740D02*
D03*
Y258071D02*
D03*
Y262402D02*
D03*
Y266732D02*
D03*
Y271063D02*
D03*
Y275394D02*
D03*
Y279724D02*
D03*
Y284055D02*
D03*
X467677Y539252D02*
D03*
Y534921D02*
D03*
Y530591D02*
D03*
Y526260D02*
D03*
Y521929D02*
D03*
Y517598D02*
D03*
Y513268D02*
D03*
Y508937D02*
D03*
X893661Y539252D02*
D03*
Y534921D02*
D03*
Y530591D02*
D03*
Y526260D02*
D03*
Y521929D02*
D03*
Y517598D02*
D03*
Y513268D02*
D03*
Y508937D02*
D03*
D114*
X536905Y295079D02*
D03*
Y216732D02*
D03*
X541236Y295079D02*
D03*
X545567Y216732D02*
D03*
X519583Y295079D02*
D03*
X515252D02*
D03*
X510921D02*
D03*
X506591D02*
D03*
X549898D02*
D03*
X545567D02*
D03*
X549898Y216732D02*
D03*
X554228Y295079D02*
D03*
X558559D02*
D03*
X532575D02*
D03*
X528244D02*
D03*
X523913D02*
D03*
X558559Y216732D02*
D03*
X554228D02*
D03*
X541236D02*
D03*
X532575D02*
D03*
X528244D02*
D03*
X523913D02*
D03*
X519583D02*
D03*
X515252D02*
D03*
X510921D02*
D03*
X506591D02*
D03*
D115*
X462102Y313976D02*
D03*
X587299D02*
D03*
X462102Y197835D02*
D03*
X587299D02*
D03*
D116*
X582772Y193307D02*
D03*
Y318504D02*
D03*
X466630Y193307D02*
D03*
Y318504D02*
D03*
D117*
X560134Y193307D02*
D03*
X536512D02*
D03*
X512890D02*
D03*
X489268D02*
D03*
X560134Y318504D02*
D03*
X536512D02*
D03*
X512890D02*
D03*
X489268D02*
D03*
X212598Y168957D02*
D03*
X236221D02*
D03*
X212598Y342854D02*
D03*
X236221D02*
D03*
X259842D02*
D03*
X283465D02*
D03*
X307087D02*
D03*
X330709D02*
D03*
X259842Y168957D02*
D03*
X283465D02*
D03*
X307087D02*
D03*
X330709D02*
D03*
D118*
X587299Y220472D02*
D03*
Y244094D02*
D03*
Y267717D02*
D03*
Y291339D02*
D03*
X462102Y220472D02*
D03*
Y244094D02*
D03*
Y267717D02*
D03*
Y291339D02*
D03*
X358602Y244094D02*
D03*
X184705D02*
D03*
X358602Y267717D02*
D03*
X184705D02*
D03*
X358602Y291339D02*
D03*
X184705D02*
D03*
X358602Y314961D02*
D03*
X184705D02*
D03*
Y220472D02*
D03*
Y196850D02*
D03*
X358602Y220472D02*
D03*
Y196850D02*
D03*
D119*
X489425Y237311D02*
D03*
X486866Y244791D02*
D03*
X491984D02*
D03*
D120*
X629549Y385827D02*
D03*
X623302D02*
D03*
X641549D02*
D03*
X635302D02*
D03*
X653549D02*
D03*
X647302D02*
D03*
X484549Y160051D02*
D03*
X478302D02*
D03*
X469549D02*
D03*
X463302D02*
D03*
X469549Y154051D02*
D03*
X463302D02*
D03*
X484549D02*
D03*
X478302D02*
D03*
X499549D02*
D03*
X493302D02*
D03*
X499549Y160051D02*
D03*
X493302D02*
D03*
X525692Y203785D02*
D03*
X531939D02*
D03*
X481049Y206051D02*
D03*
X474802D02*
D03*
X480549Y237551D02*
D03*
X474302D02*
D03*
X480549Y243551D02*
D03*
X474302D02*
D03*
X662302Y346551D02*
D03*
X668549D02*
D03*
X662302Y324551D02*
D03*
X668549D02*
D03*
X677049Y194551D02*
D03*
X670802D02*
D03*
X695302Y228551D02*
D03*
X701549D02*
D03*
X695302Y234551D02*
D03*
X701549D02*
D03*
X679802Y231551D02*
D03*
X686049D02*
D03*
X670302Y252551D02*
D03*
X676549D02*
D03*
X670302Y262551D02*
D03*
X676549D02*
D03*
X681302Y291551D02*
D03*
X687549D02*
D03*
X693302D02*
D03*
X699549D02*
D03*
X711549D02*
D03*
X705302D02*
D03*
X572925Y208551D02*
D03*
X579172D02*
D03*
X601049Y220551D02*
D03*
X594802D02*
D03*
X572802Y257551D02*
D03*
Y263551D02*
D03*
X579049Y249551D02*
D03*
X572802D02*
D03*
X579049Y243551D02*
D03*
X572802D02*
D03*
X579049Y257551D02*
D03*
Y263551D02*
D03*
Y269551D02*
D03*
X572802D02*
D03*
X601049Y283051D02*
D03*
X594802D02*
D03*
X601049Y277051D02*
D03*
X594802D02*
D03*
X376198Y630134D02*
D03*
X369951D02*
D03*
X364198D02*
D03*
X357951D02*
D03*
X369951Y650134D02*
D03*
X376198D02*
D03*
X357951D02*
D03*
X364198D02*
D03*
X227451Y774634D02*
D03*
X233698D02*
D03*
X221198D02*
D03*
X214951D02*
D03*
X206198Y767634D02*
D03*
X199951D02*
D03*
Y761634D02*
D03*
X206198D02*
D03*
Y755634D02*
D03*
X199951D02*
D03*
Y749634D02*
D03*
X206198D02*
D03*
X199951Y743634D02*
D03*
X206198D02*
D03*
X230451Y737634D02*
D03*
X236698D02*
D03*
X286698Y774634D02*
D03*
X280451D02*
D03*
Y780634D02*
D03*
X286698D02*
D03*
X394198Y723134D02*
D03*
X387951D02*
D03*
X394951Y519634D02*
D03*
X401198D02*
D03*
X394951Y525634D02*
D03*
X401198D02*
D03*
Y531634D02*
D03*
X394951D02*
D03*
Y537634D02*
D03*
X401198D02*
D03*
Y543634D02*
D03*
X394951D02*
D03*
Y513634D02*
D03*
X401198D02*
D03*
X211951Y581134D02*
D03*
X218198D02*
D03*
X211951Y561134D02*
D03*
X218198D02*
D03*
X467198Y466634D02*
D03*
X460951D02*
D03*
X314951Y492634D02*
D03*
X321198D02*
D03*
X248951Y678634D02*
D03*
X255198D02*
D03*
Y646134D02*
D03*
X248951D02*
D03*
Y640134D02*
D03*
X255198D02*
D03*
X337198Y675134D02*
D03*
X330951D02*
D03*
X802183Y630134D02*
D03*
X795935D02*
D03*
X790183D02*
D03*
X783935D02*
D03*
X795935Y650134D02*
D03*
X802183D02*
D03*
X783935D02*
D03*
X790183D02*
D03*
X653435Y774634D02*
D03*
X659683D02*
D03*
X647183D02*
D03*
X640935D02*
D03*
X632183Y767634D02*
D03*
X625935D02*
D03*
Y761634D02*
D03*
X632183D02*
D03*
Y755634D02*
D03*
X625935D02*
D03*
Y749634D02*
D03*
X632183D02*
D03*
X625935Y743634D02*
D03*
X632183D02*
D03*
X656435Y737634D02*
D03*
X662683D02*
D03*
X712683Y774634D02*
D03*
X706435D02*
D03*
Y780634D02*
D03*
X712683D02*
D03*
X820183Y723134D02*
D03*
X813935D02*
D03*
X820935Y519634D02*
D03*
X827183D02*
D03*
X820935Y525634D02*
D03*
X827183D02*
D03*
Y531634D02*
D03*
X820935D02*
D03*
Y537634D02*
D03*
X827183D02*
D03*
Y543634D02*
D03*
X820935D02*
D03*
Y513634D02*
D03*
X827183D02*
D03*
X637935Y581134D02*
D03*
X644183D02*
D03*
X637935Y561134D02*
D03*
X644183D02*
D03*
X893183Y466634D02*
D03*
X886935D02*
D03*
X740935Y492634D02*
D03*
X747183D02*
D03*
X674935Y678634D02*
D03*
X681183D02*
D03*
Y646134D02*
D03*
X674935D02*
D03*
Y640134D02*
D03*
X681183D02*
D03*
X763183Y675134D02*
D03*
X756935D02*
D03*
X193928Y291760D02*
D03*
X200175D02*
D03*
X193928Y285760D02*
D03*
X200175D02*
D03*
X193928Y279760D02*
D03*
X200175D02*
D03*
X169928Y288260D02*
D03*
X176175D02*
D03*
X169928Y265760D02*
D03*
X176175D02*
D03*
X169928Y271760D02*
D03*
X176175D02*
D03*
X169928Y252760D02*
D03*
X176175D02*
D03*
X169928Y234260D02*
D03*
X176175D02*
D03*
X169928Y240260D02*
D03*
X176175D02*
D03*
X169928Y222760D02*
D03*
X176175D02*
D03*
X169928Y216760D02*
D03*
X176175D02*
D03*
X169928Y201260D02*
D03*
X176175D02*
D03*
X148675Y292260D02*
D03*
X142428D02*
D03*
X137175Y276260D02*
D03*
X130928D02*
D03*
X125175D02*
D03*
X118928D02*
D03*
X106928D02*
D03*
X113175D02*
D03*
X156175Y194260D02*
D03*
X149928D02*
D03*
X156175Y188260D02*
D03*
X149928D02*
D03*
X156175Y166260D02*
D03*
X149928D02*
D03*
X172675Y125984D02*
D03*
X166428D02*
D03*
X184675D02*
D03*
X178428D02*
D03*
X196675D02*
D03*
X190428D02*
D03*
D121*
X663762Y385827D02*
D03*
X676978D02*
D03*
X663762Y125984D02*
D03*
X676978D02*
D03*
X262683Y729134D02*
D03*
X249467D02*
D03*
X688667D02*
D03*
X675451D02*
D03*
X142998Y125984D02*
D03*
X156215D02*
D03*
X142998Y385827D02*
D03*
X156215D02*
D03*
D122*
X501425Y382283D02*
D03*
Y365748D02*
D03*
X476425Y382283D02*
D03*
Y365748D02*
D03*
X343551Y146063D02*
D03*
Y129527D02*
D03*
X319551Y129527D02*
D03*
Y146063D02*
D03*
D123*
X502894Y206776D02*
D03*
X500925D02*
D03*
X498957D02*
D03*
Y200949D02*
D03*
X502894D02*
D03*
X510516Y206776D02*
D03*
X508547D02*
D03*
X506579D02*
D03*
Y200949D02*
D03*
X510516D02*
D03*
X518516Y206776D02*
D03*
X516547D02*
D03*
X514579D02*
D03*
Y200949D02*
D03*
X518516D02*
D03*
D124*
X489925Y211675D02*
D03*
Y205428D02*
D03*
Y223675D02*
D03*
Y217428D02*
D03*
X486425Y257675D02*
D03*
Y251428D02*
D03*
X480425D02*
D03*
Y257675D02*
D03*
X474425Y251428D02*
D03*
Y257675D02*
D03*
X510925Y303928D02*
D03*
Y310175D02*
D03*
X488925Y304428D02*
D03*
Y310675D02*
D03*
X686425Y164175D02*
D03*
Y157928D02*
D03*
X692425D02*
D03*
Y164175D02*
D03*
Y172928D02*
D03*
Y179175D02*
D03*
X686425D02*
D03*
Y172928D02*
D03*
X676925Y207428D02*
D03*
Y213675D02*
D03*
X676425Y301928D02*
D03*
Y308175D02*
D03*
X615425Y214798D02*
D03*
Y208551D02*
D03*
X522425Y178928D02*
D03*
Y185175D02*
D03*
X528425Y178928D02*
D03*
Y185175D02*
D03*
X552925Y178928D02*
D03*
Y185175D02*
D03*
X558925Y178928D02*
D03*
Y185175D02*
D03*
X503925Y325928D02*
D03*
Y332175D02*
D03*
X485925D02*
D03*
Y325928D02*
D03*
X491925Y332175D02*
D03*
Y325928D02*
D03*
X497925Y332175D02*
D03*
Y325928D02*
D03*
X509925Y332175D02*
D03*
Y325928D02*
D03*
X515925D02*
D03*
Y332175D02*
D03*
X521925D02*
D03*
Y325928D02*
D03*
X527925D02*
D03*
Y332175D02*
D03*
X533925D02*
D03*
Y325928D02*
D03*
X539925Y332175D02*
D03*
Y325928D02*
D03*
X545925Y332175D02*
D03*
Y325928D02*
D03*
X551925Y332175D02*
D03*
Y325928D02*
D03*
X557925Y332175D02*
D03*
Y325928D02*
D03*
X347075Y710510D02*
D03*
Y716757D02*
D03*
X193575Y799258D02*
D03*
Y793010D02*
D03*
X209075Y799258D02*
D03*
Y793010D02*
D03*
X224575Y799258D02*
D03*
Y793010D02*
D03*
X240075Y799258D02*
D03*
Y793010D02*
D03*
X255575Y799258D02*
D03*
Y793010D02*
D03*
X271075Y799258D02*
D03*
Y793010D02*
D03*
X193575Y811257D02*
D03*
Y805010D02*
D03*
X209075Y811257D02*
D03*
Y805010D02*
D03*
X224575Y811257D02*
D03*
Y805010D02*
D03*
X240075Y811257D02*
D03*
Y805010D02*
D03*
X255575D02*
D03*
Y811257D02*
D03*
X271075Y805010D02*
D03*
Y811257D02*
D03*
X379075Y747258D02*
D03*
Y741010D02*
D03*
X373075D02*
D03*
Y747258D02*
D03*
X357575Y729757D02*
D03*
Y723510D02*
D03*
X363575Y729757D02*
D03*
Y723510D02*
D03*
X373075Y810758D02*
D03*
Y804510D02*
D03*
X424575Y502134D02*
D03*
Y508381D02*
D03*
X418575Y502134D02*
D03*
Y508381D02*
D03*
X412575Y502134D02*
D03*
Y508381D02*
D03*
X378075Y513010D02*
D03*
Y519257D02*
D03*
X372075D02*
D03*
Y513010D02*
D03*
X366075Y519257D02*
D03*
Y513010D02*
D03*
X360075Y519257D02*
D03*
Y513010D02*
D03*
X354075Y519257D02*
D03*
Y513010D02*
D03*
X218075Y593258D02*
D03*
Y587010D02*
D03*
X212075D02*
D03*
Y593258D02*
D03*
Y567010D02*
D03*
Y573257D02*
D03*
X218075D02*
D03*
Y567010D02*
D03*
X447575Y450758D02*
D03*
Y444510D02*
D03*
X441575Y450758D02*
D03*
Y444510D02*
D03*
X427575Y450758D02*
D03*
Y444510D02*
D03*
X421575Y450758D02*
D03*
Y444510D02*
D03*
X242075Y515258D02*
D03*
Y509010D02*
D03*
X231575D02*
D03*
Y515258D02*
D03*
X202075D02*
D03*
Y509010D02*
D03*
X284075Y450758D02*
D03*
Y444510D02*
D03*
X278075D02*
D03*
Y450758D02*
D03*
X298075Y444510D02*
D03*
Y450758D02*
D03*
X304075D02*
D03*
Y444510D02*
D03*
X318075Y450758D02*
D03*
Y444510D02*
D03*
X363075Y485257D02*
D03*
Y479010D02*
D03*
X344075Y485257D02*
D03*
Y479010D02*
D03*
X338075Y485257D02*
D03*
Y479010D02*
D03*
X318075Y468510D02*
D03*
Y474757D02*
D03*
X304075D02*
D03*
Y468510D02*
D03*
X298075Y474757D02*
D03*
Y468510D02*
D03*
X284075Y474757D02*
D03*
Y468510D02*
D03*
X278075Y474757D02*
D03*
Y468510D02*
D03*
X267575Y476510D02*
D03*
Y482758D02*
D03*
X227575Y476510D02*
D03*
Y482758D02*
D03*
X283575Y701258D02*
D03*
Y695010D02*
D03*
X275575Y701258D02*
D03*
Y695010D02*
D03*
X240075Y657010D02*
D03*
Y663258D02*
D03*
X273575Y613010D02*
D03*
Y619257D02*
D03*
X279575Y613010D02*
D03*
Y619257D02*
D03*
X306575Y613010D02*
D03*
Y619257D02*
D03*
X314575Y613010D02*
D03*
Y619257D02*
D03*
X304575Y754010D02*
D03*
Y760257D02*
D03*
X773059Y710510D02*
D03*
Y716757D02*
D03*
X619559Y799258D02*
D03*
Y793010D02*
D03*
X635059Y799258D02*
D03*
Y793010D02*
D03*
X650559Y799258D02*
D03*
Y793010D02*
D03*
X666059Y799258D02*
D03*
Y793010D02*
D03*
X681559Y799258D02*
D03*
Y793010D02*
D03*
X697059Y799258D02*
D03*
Y793010D02*
D03*
X619559Y811257D02*
D03*
Y805010D02*
D03*
X635059Y811257D02*
D03*
Y805010D02*
D03*
X650559Y811257D02*
D03*
Y805010D02*
D03*
X666059Y811257D02*
D03*
Y805010D02*
D03*
X681559D02*
D03*
Y811257D02*
D03*
X697059Y805010D02*
D03*
Y811257D02*
D03*
X805059Y747258D02*
D03*
Y741010D02*
D03*
X799059D02*
D03*
Y747258D02*
D03*
X783559Y729757D02*
D03*
Y723510D02*
D03*
X789559Y729757D02*
D03*
Y723510D02*
D03*
X799059Y810758D02*
D03*
Y804510D02*
D03*
X850559Y502134D02*
D03*
Y508381D02*
D03*
X844559Y502134D02*
D03*
Y508381D02*
D03*
X838559Y502134D02*
D03*
Y508381D02*
D03*
X804059Y513010D02*
D03*
Y519257D02*
D03*
X798059D02*
D03*
Y513010D02*
D03*
X792059Y519257D02*
D03*
Y513010D02*
D03*
X786059Y519257D02*
D03*
Y513010D02*
D03*
X780059Y519257D02*
D03*
Y513010D02*
D03*
X644059Y593258D02*
D03*
Y587010D02*
D03*
X638059D02*
D03*
Y593258D02*
D03*
Y567010D02*
D03*
Y573257D02*
D03*
X644059D02*
D03*
Y567010D02*
D03*
X873559Y450758D02*
D03*
Y444510D02*
D03*
X867559Y450758D02*
D03*
Y444510D02*
D03*
X853559Y450758D02*
D03*
Y444510D02*
D03*
X847559Y450758D02*
D03*
Y444510D02*
D03*
X668059Y515258D02*
D03*
Y509010D02*
D03*
X657559D02*
D03*
Y515258D02*
D03*
X628059D02*
D03*
Y509010D02*
D03*
X710059Y450758D02*
D03*
Y444510D02*
D03*
X704059D02*
D03*
Y450758D02*
D03*
X724059Y444510D02*
D03*
Y450758D02*
D03*
X730059D02*
D03*
Y444510D02*
D03*
X744059Y450758D02*
D03*
Y444510D02*
D03*
X789059Y485257D02*
D03*
Y479010D02*
D03*
X770059Y485257D02*
D03*
Y479010D02*
D03*
X764059Y485257D02*
D03*
Y479010D02*
D03*
X744059Y468510D02*
D03*
Y474757D02*
D03*
X730059D02*
D03*
Y468510D02*
D03*
X724059Y474757D02*
D03*
Y468510D02*
D03*
X710059Y474757D02*
D03*
Y468510D02*
D03*
X704059Y474757D02*
D03*
Y468510D02*
D03*
X693559Y476510D02*
D03*
Y482758D02*
D03*
X653559Y476510D02*
D03*
Y482758D02*
D03*
X709559Y701258D02*
D03*
Y695010D02*
D03*
X701559Y701258D02*
D03*
Y695010D02*
D03*
X666059Y657010D02*
D03*
Y663258D02*
D03*
X699559Y613010D02*
D03*
Y619257D02*
D03*
X705559Y613010D02*
D03*
Y619257D02*
D03*
X732559Y613010D02*
D03*
Y619257D02*
D03*
X740559Y613010D02*
D03*
Y619257D02*
D03*
X730559Y754010D02*
D03*
Y760257D02*
D03*
X325551Y387883D02*
D03*
Y381636D02*
D03*
X319551Y387883D02*
D03*
Y381636D02*
D03*
X325551Y366636D02*
D03*
Y372884D02*
D03*
X319551D02*
D03*
Y366636D02*
D03*
X194051Y309883D02*
D03*
Y303636D02*
D03*
X231051Y154636D02*
D03*
Y160883D02*
D03*
X237051Y154636D02*
D03*
Y160883D02*
D03*
X243051Y154636D02*
D03*
Y160883D02*
D03*
X249051Y154636D02*
D03*
Y160883D02*
D03*
X313551Y154636D02*
D03*
Y160883D02*
D03*
X319551Y154636D02*
D03*
Y160883D02*
D03*
X325551Y154636D02*
D03*
Y160883D02*
D03*
X331551Y154636D02*
D03*
Y160883D02*
D03*
X337551Y154636D02*
D03*
Y160883D02*
D03*
X343551Y154636D02*
D03*
Y160883D02*
D03*
X162551Y332636D02*
D03*
Y338883D02*
D03*
X156551Y332636D02*
D03*
Y338883D02*
D03*
X162551Y326884D02*
D03*
Y320636D02*
D03*
X156551Y326884D02*
D03*
Y320636D02*
D03*
X127551Y353884D02*
D03*
Y347636D02*
D03*
X133551D02*
D03*
Y353884D02*
D03*
X127551Y338883D02*
D03*
Y332636D02*
D03*
X133551D02*
D03*
Y338883D02*
D03*
X144051Y315260D02*
D03*
Y309013D02*
D03*
X143051Y221136D02*
D03*
Y227383D02*
D03*
Y236136D02*
D03*
Y242384D02*
D03*
Y267883D02*
D03*
Y261636D02*
D03*
X149051Y267883D02*
D03*
Y261636D02*
D03*
Y236136D02*
D03*
Y242384D02*
D03*
Y221136D02*
D03*
Y227383D02*
D03*
X109051Y209384D02*
D03*
Y203136D02*
D03*
X115051D02*
D03*
Y209384D02*
D03*
X123051Y203136D02*
D03*
Y209384D02*
D03*
X129051D02*
D03*
Y203136D02*
D03*
X137051D02*
D03*
Y209384D02*
D03*
D125*
X481764Y230098D02*
D03*
X479205D02*
D03*
X476646D02*
D03*
X474087D02*
D03*
Y213004D02*
D03*
X476646D02*
D03*
X479205D02*
D03*
X481764D02*
D03*
D126*
X520925Y302827D02*
D03*
X517185Y312276D02*
D03*
X524665D02*
D03*
X535425Y302827D02*
D03*
X531685Y312276D02*
D03*
X539165D02*
D03*
X498925Y302827D02*
D03*
X495185Y312276D02*
D03*
X502665D02*
D03*
X195551Y248484D02*
D03*
X199291Y239035D02*
D03*
X191811D02*
D03*
D127*
X670150Y331811D02*
D03*
Y335551D02*
D03*
Y339291D02*
D03*
X660701D02*
D03*
Y335551D02*
D03*
Y331811D02*
D03*
X157776Y173520D02*
D03*
Y177260D02*
D03*
Y181000D02*
D03*
X148327D02*
D03*
Y177260D02*
D03*
Y173520D02*
D03*
D128*
X687114Y217339D02*
D03*
Y195764D02*
D03*
Y268339D02*
D03*
Y246764D02*
D03*
X132862Y292472D02*
D03*
Y314047D02*
D03*
D129*
X687114Y211551D02*
D03*
Y206551D02*
D03*
Y201551D02*
D03*
Y262551D02*
D03*
Y257551D02*
D03*
Y252551D02*
D03*
X132862Y298260D02*
D03*
Y303260D02*
D03*
Y308260D02*
D03*
D130*
X710736Y206551D02*
D03*
Y257551D02*
D03*
X109240Y303260D02*
D03*
D131*
X686091Y305051D02*
D03*
X706760D02*
D03*
X132386Y263760D02*
D03*
X111716D02*
D03*
D132*
X608224Y208551D02*
D03*
X595626D02*
D03*
X241732Y453933D02*
D03*
X251575D02*
D03*
X261417D02*
D03*
X241732Y441335D02*
D03*
X251575D02*
D03*
X261417D02*
D03*
X201732Y453933D02*
D03*
X211575D02*
D03*
X221417D02*
D03*
X201732Y441335D02*
D03*
X211575D02*
D03*
X221417D02*
D03*
X181417D02*
D03*
X171575D02*
D03*
X161732D02*
D03*
X181417Y453933D02*
D03*
X171575D02*
D03*
X161732D02*
D03*
X667717D02*
D03*
X677559D02*
D03*
X687402D02*
D03*
X667717Y441335D02*
D03*
X677559D02*
D03*
X687402D02*
D03*
X627716Y453933D02*
D03*
X637559D02*
D03*
X647402D02*
D03*
X627716Y441335D02*
D03*
X637559D02*
D03*
X647402D02*
D03*
X607402D02*
D03*
X597559D02*
D03*
X587716D02*
D03*
X607402Y453933D02*
D03*
X597559D02*
D03*
X587716D02*
D03*
X175350Y297760D02*
D03*
X162752D02*
D03*
D133*
X601925Y211701D02*
D03*
Y205402D02*
D03*
X169051Y300909D02*
D03*
Y294610D02*
D03*
D134*
X621224Y257894D02*
D03*
Y248051D02*
D03*
Y238209D02*
D03*
X608626Y257894D02*
D03*
Y248051D02*
D03*
Y238209D02*
D03*
X470276Y594791D02*
D03*
Y604634D02*
D03*
Y614476D02*
D03*
X482874Y594791D02*
D03*
Y604634D02*
D03*
Y614476D02*
D03*
X445276Y594791D02*
D03*
Y604634D02*
D03*
Y614476D02*
D03*
X457874Y594791D02*
D03*
Y604634D02*
D03*
Y614476D02*
D03*
X896260Y594791D02*
D03*
Y604634D02*
D03*
Y614476D02*
D03*
X908858Y594791D02*
D03*
Y604634D02*
D03*
Y614476D02*
D03*
X871260Y594791D02*
D03*
Y604634D02*
D03*
Y614476D02*
D03*
X883858Y594791D02*
D03*
Y604634D02*
D03*
Y614476D02*
D03*
D135*
X680980Y325047D02*
D03*
Y327016D02*
D03*
Y328984D02*
D03*
Y330953D02*
D03*
Y332921D02*
D03*
Y334890D02*
D03*
Y336858D02*
D03*
Y338827D02*
D03*
Y340795D02*
D03*
Y342764D02*
D03*
Y344732D02*
D03*
Y346701D02*
D03*
X687673Y345717D02*
D03*
Y343748D02*
D03*
Y341779D02*
D03*
Y339811D02*
D03*
Y337842D02*
D03*
Y335874D02*
D03*
Y333906D02*
D03*
Y331937D02*
D03*
Y329969D02*
D03*
Y328000D02*
D03*
Y326031D02*
D03*
Y324063D02*
D03*
X138996Y186764D02*
D03*
Y184795D02*
D03*
Y182827D02*
D03*
Y180858D02*
D03*
Y178890D02*
D03*
Y176921D02*
D03*
Y174953D02*
D03*
Y172984D02*
D03*
Y171016D02*
D03*
Y169047D02*
D03*
Y167079D02*
D03*
Y165110D02*
D03*
X132303Y166095D02*
D03*
Y168063D02*
D03*
Y170031D02*
D03*
Y172000D02*
D03*
Y173969D02*
D03*
Y175937D02*
D03*
Y177905D02*
D03*
Y179874D02*
D03*
Y181843D02*
D03*
Y183811D02*
D03*
Y185780D02*
D03*
Y187748D02*
D03*
D136*
X358413Y644071D02*
D03*
Y642102D02*
D03*
Y640134D02*
D03*
Y638165D02*
D03*
Y636197D02*
D03*
X375736D02*
D03*
Y638165D02*
D03*
Y640134D02*
D03*
Y642102D02*
D03*
Y644071D02*
D03*
Y624071D02*
D03*
Y622102D02*
D03*
Y620134D02*
D03*
Y618165D02*
D03*
Y616197D02*
D03*
X358413D02*
D03*
Y618165D02*
D03*
Y620134D02*
D03*
Y622102D02*
D03*
Y624071D02*
D03*
X784398Y644071D02*
D03*
Y642102D02*
D03*
Y640134D02*
D03*
Y638165D02*
D03*
Y636197D02*
D03*
X801721D02*
D03*
Y638165D02*
D03*
Y640134D02*
D03*
Y642102D02*
D03*
Y644071D02*
D03*
Y624071D02*
D03*
Y622102D02*
D03*
Y620134D02*
D03*
Y618165D02*
D03*
Y616197D02*
D03*
X784398D02*
D03*
Y618165D02*
D03*
Y620134D02*
D03*
Y622102D02*
D03*
Y624071D02*
D03*
D137*
X163575Y767260D02*
D03*
Y783008D02*
D03*
X589559Y767260D02*
D03*
Y783008D02*
D03*
D138*
X229988Y760047D02*
D03*
Y758079D02*
D03*
Y756110D02*
D03*
Y754142D02*
D03*
Y752173D02*
D03*
X218768D02*
D03*
Y754142D02*
D03*
Y756110D02*
D03*
Y758079D02*
D03*
Y760047D02*
D03*
X655972D02*
D03*
Y758079D02*
D03*
Y756110D02*
D03*
Y754142D02*
D03*
Y752173D02*
D03*
X644752D02*
D03*
Y754142D02*
D03*
Y756110D02*
D03*
Y758079D02*
D03*
Y760047D02*
D03*
D139*
X224378Y756110D02*
D03*
X650362D02*
D03*
D140*
X263949Y772134D02*
D03*
X248201D02*
D03*
X263949Y741134D02*
D03*
X248201D02*
D03*
X311949Y778134D02*
D03*
X296201D02*
D03*
X689933Y772134D02*
D03*
X674185D02*
D03*
X689933Y741134D02*
D03*
X674185D02*
D03*
X737933Y778134D02*
D03*
X722185D02*
D03*
D141*
X248201Y756634D02*
D03*
X263949D02*
D03*
X674185D02*
D03*
X689933D02*
D03*
D142*
X334075Y756134D02*
D03*
X312575D02*
D03*
X760059D02*
D03*
X738559D02*
D03*
D143*
X290856Y760304D02*
D03*
X287116D02*
D03*
X283376D02*
D03*
Y751247D02*
D03*
X287116D02*
D03*
X290856D02*
D03*
X716840Y760304D02*
D03*
X713100D02*
D03*
X709360D02*
D03*
Y751247D02*
D03*
X713100D02*
D03*
X716840D02*
D03*
D144*
X335474Y775634D02*
D03*
X322676D02*
D03*
X761458D02*
D03*
X748660D02*
D03*
D145*
X391075Y749008D02*
D03*
Y733260D02*
D03*
X817059Y749008D02*
D03*
Y733260D02*
D03*
D146*
X364055Y737634D02*
D03*
X356575D02*
D03*
Y747870D02*
D03*
X360315D02*
D03*
X364055D02*
D03*
X790039Y737634D02*
D03*
X782559D02*
D03*
Y747870D02*
D03*
X786299D02*
D03*
X790039D02*
D03*
D147*
X382075Y795134D02*
D03*
Y767134D02*
D03*
X394075D02*
D03*
Y795134D02*
D03*
X808059D02*
D03*
Y767134D02*
D03*
X820059D02*
D03*
Y795134D02*
D03*
D148*
X432512Y684374D02*
D03*
Y676894D02*
D03*
X424638Y680634D02*
D03*
X432512Y698374D02*
D03*
Y690894D02*
D03*
X424638Y694634D02*
D03*
X432512Y712374D02*
D03*
Y704894D02*
D03*
X424638Y708634D02*
D03*
X432512Y726374D02*
D03*
Y718894D02*
D03*
X424638Y722634D02*
D03*
X858496Y684374D02*
D03*
Y676894D02*
D03*
X850622Y680634D02*
D03*
X858496Y698374D02*
D03*
Y690894D02*
D03*
X850622Y694634D02*
D03*
X858496Y712374D02*
D03*
Y704894D02*
D03*
X850622Y708634D02*
D03*
X858496Y726374D02*
D03*
Y718894D02*
D03*
X850622Y722634D02*
D03*
D149*
X483575Y566235D02*
D03*
Y579033D02*
D03*
X458575Y566235D02*
D03*
Y579033D02*
D03*
X258075Y469235D02*
D03*
Y482033D02*
D03*
X245075D02*
D03*
Y469235D02*
D03*
X218075D02*
D03*
Y482033D02*
D03*
X205075D02*
D03*
Y469235D02*
D03*
X909559Y566235D02*
D03*
Y579033D02*
D03*
X884559Y566235D02*
D03*
Y579033D02*
D03*
X684059Y469235D02*
D03*
Y482033D02*
D03*
X671059D02*
D03*
Y469235D02*
D03*
X644059D02*
D03*
Y482033D02*
D03*
X631059D02*
D03*
Y469235D02*
D03*
D150*
X445236Y499567D02*
D03*
Y553701D02*
D03*
X477913Y499567D02*
D03*
Y553701D02*
D03*
X871220Y499567D02*
D03*
Y553701D02*
D03*
X903898Y499567D02*
D03*
Y553701D02*
D03*
D151*
X410457Y517394D02*
D03*
Y524874D02*
D03*
X420693D02*
D03*
Y521134D02*
D03*
Y517394D02*
D03*
X410457Y533894D02*
D03*
Y541374D02*
D03*
X420693D02*
D03*
Y537634D02*
D03*
Y533894D02*
D03*
X836441Y517394D02*
D03*
Y524874D02*
D03*
X846677D02*
D03*
Y521134D02*
D03*
Y517394D02*
D03*
X836441Y533894D02*
D03*
Y541374D02*
D03*
X846677D02*
D03*
Y537634D02*
D03*
Y533894D02*
D03*
D152*
X384075Y477299D02*
D03*
Y497968D02*
D03*
X810059Y477299D02*
D03*
Y497968D02*
D03*
D153*
X234524Y584874D02*
D03*
X225075Y581134D02*
D03*
Y588614D02*
D03*
X234524Y564874D02*
D03*
X225075Y561134D02*
D03*
Y568614D02*
D03*
X660508Y584874D02*
D03*
X651059Y581134D02*
D03*
Y588614D02*
D03*
X660508Y564874D02*
D03*
X651059Y561134D02*
D03*
Y568614D02*
D03*
D154*
X215315Y491697D02*
D03*
X207835D02*
D03*
X211575Y499571D02*
D03*
X251575D02*
D03*
X247835Y491697D02*
D03*
X255315D02*
D03*
X641299D02*
D03*
X633819D02*
D03*
X637559Y499571D02*
D03*
X677559D02*
D03*
X673819Y491697D02*
D03*
X681299D02*
D03*
D155*
X255413Y517252D02*
D03*
X252854D02*
D03*
X250295D02*
D03*
X247736D02*
D03*
Y507016D02*
D03*
X250295D02*
D03*
X252854D02*
D03*
X255413D02*
D03*
X215413Y517252D02*
D03*
X212854D02*
D03*
X210295D02*
D03*
X207736D02*
D03*
Y507016D02*
D03*
X210295D02*
D03*
X212854D02*
D03*
X215413D02*
D03*
X681398Y517252D02*
D03*
X678839D02*
D03*
X676279D02*
D03*
X673721D02*
D03*
Y507016D02*
D03*
X676279D02*
D03*
X678839D02*
D03*
X681398D02*
D03*
X641398Y517252D02*
D03*
X638839D02*
D03*
X636279D02*
D03*
X633720D02*
D03*
Y507016D02*
D03*
X636279D02*
D03*
X638839D02*
D03*
X641398D02*
D03*
D156*
X340551Y459886D02*
D03*
X342520D02*
D03*
X344488D02*
D03*
X346457D02*
D03*
X348425D02*
D03*
X350394D02*
D03*
X352362D02*
D03*
X354331D02*
D03*
X356299D02*
D03*
X358268D02*
D03*
X360236D02*
D03*
X362205D02*
D03*
X363189Y466579D02*
D03*
X361221D02*
D03*
X359252D02*
D03*
X357283D02*
D03*
X355315D02*
D03*
X353346D02*
D03*
X351378D02*
D03*
X349410D02*
D03*
X347441D02*
D03*
X345472D02*
D03*
X343504D02*
D03*
X341535D02*
D03*
X766535Y459886D02*
D03*
X768504D02*
D03*
X770472D02*
D03*
X772441D02*
D03*
X774409D02*
D03*
X776378D02*
D03*
X778346D02*
D03*
X780315D02*
D03*
X782283D02*
D03*
X784252D02*
D03*
X786221D02*
D03*
X788189D02*
D03*
X789173Y466579D02*
D03*
X787205D02*
D03*
X785236D02*
D03*
X783268D02*
D03*
X781299D02*
D03*
X779331D02*
D03*
X777362D02*
D03*
X775394D02*
D03*
X773425D02*
D03*
X771457D02*
D03*
X769488D02*
D03*
X767520D02*
D03*
D157*
X357315Y486858D02*
D03*
X353575D02*
D03*
X349835D02*
D03*
Y477410D02*
D03*
X353575D02*
D03*
X357315D02*
D03*
X783299Y486858D02*
D03*
X779559D02*
D03*
X775819D02*
D03*
Y477410D02*
D03*
X779559D02*
D03*
X783299D02*
D03*
D158*
X315248Y485634D02*
D03*
Y483665D02*
D03*
Y481697D02*
D03*
X321075D02*
D03*
Y485634D02*
D03*
X741232D02*
D03*
Y483665D02*
D03*
Y481697D02*
D03*
X747059D02*
D03*
Y485634D02*
D03*
D159*
X294059Y679772D02*
D03*
X292091D02*
D03*
X301933D02*
D03*
X284216D02*
D03*
X305870D02*
D03*
X303902D02*
D03*
X307839D02*
D03*
X299965D02*
D03*
X297996D02*
D03*
X296028D02*
D03*
X286185D02*
D03*
X288154D02*
D03*
X290122D02*
D03*
X282248D02*
D03*
X280279D02*
D03*
X278311D02*
D03*
X294059Y634496D02*
D03*
X301933D02*
D03*
X292091D02*
D03*
X284216D02*
D03*
X303902D02*
D03*
X305870D02*
D03*
X307839D02*
D03*
X297996D02*
D03*
X299965D02*
D03*
X288154D02*
D03*
X290122D02*
D03*
X286185D02*
D03*
X280279D02*
D03*
X282248D02*
D03*
X278311D02*
D03*
X296028D02*
D03*
X720043Y679772D02*
D03*
X718075D02*
D03*
X727917D02*
D03*
X710201D02*
D03*
X731854D02*
D03*
X729886D02*
D03*
X733823D02*
D03*
X725949D02*
D03*
X723980D02*
D03*
X722012D02*
D03*
X712169D02*
D03*
X714138D02*
D03*
X716106D02*
D03*
X708232D02*
D03*
X706264D02*
D03*
X704295D02*
D03*
X720043Y634496D02*
D03*
X727917D02*
D03*
X718075D02*
D03*
X710201D02*
D03*
X729886D02*
D03*
X731854D02*
D03*
X733823D02*
D03*
X723980D02*
D03*
X725949D02*
D03*
X714138D02*
D03*
X716106D02*
D03*
X712169D02*
D03*
X706264D02*
D03*
X708232D02*
D03*
X704295D02*
D03*
X722012D02*
D03*
D160*
X315713Y658118D02*
D03*
Y648276D02*
D03*
Y656150D02*
D03*
Y665992D02*
D03*
Y644339D02*
D03*
Y646307D02*
D03*
Y642370D02*
D03*
Y654181D02*
D03*
Y650244D02*
D03*
Y652213D02*
D03*
Y660087D02*
D03*
Y662055D02*
D03*
Y664024D02*
D03*
Y671898D02*
D03*
Y667961D02*
D03*
Y669929D02*
D03*
X741697Y658118D02*
D03*
Y648276D02*
D03*
Y656150D02*
D03*
Y665992D02*
D03*
Y644339D02*
D03*
Y646307D02*
D03*
Y642370D02*
D03*
Y654181D02*
D03*
Y650244D02*
D03*
Y652213D02*
D03*
Y660087D02*
D03*
Y662055D02*
D03*
Y664024D02*
D03*
Y671898D02*
D03*
Y667961D02*
D03*
Y669929D02*
D03*
D161*
X270437Y658118D02*
D03*
Y656150D02*
D03*
Y648276D02*
D03*
Y665992D02*
D03*
Y642370D02*
D03*
Y644339D02*
D03*
Y646307D02*
D03*
Y654181D02*
D03*
Y652213D02*
D03*
Y650244D02*
D03*
Y664024D02*
D03*
Y662055D02*
D03*
Y660087D02*
D03*
Y671898D02*
D03*
Y669929D02*
D03*
Y667961D02*
D03*
X696421Y658118D02*
D03*
Y656150D02*
D03*
Y648276D02*
D03*
Y665992D02*
D03*
Y642370D02*
D03*
Y644339D02*
D03*
Y646307D02*
D03*
Y654181D02*
D03*
Y652213D02*
D03*
Y650244D02*
D03*
Y664024D02*
D03*
Y662055D02*
D03*
Y660087D02*
D03*
Y671898D02*
D03*
Y669929D02*
D03*
Y667961D02*
D03*
D162*
X249425Y671634D02*
D03*
X255724D02*
D03*
X675410D02*
D03*
X681709D02*
D03*
D163*
X252969Y673406D02*
D03*
X252181Y669862D02*
D03*
X678953Y673406D02*
D03*
X678165Y669862D02*
D03*
D164*
X254709Y654894D02*
D03*
X246441D02*
D03*
X254709Y662374D02*
D03*
X246441D02*
D03*
X680693Y654894D02*
D03*
X672425D02*
D03*
X680693Y662374D02*
D03*
X672425D02*
D03*
D165*
X446075Y562634D02*
D03*
Y582634D02*
D03*
X471075Y562634D02*
D03*
Y582634D02*
D03*
X872059Y562634D02*
D03*
Y582634D02*
D03*
X897059Y562634D02*
D03*
Y582634D02*
D03*
D166*
X189567Y342854D02*
D03*
X353740D02*
D03*
X189567Y168957D02*
D03*
X353740D02*
D03*
D167*
X184705Y337992D02*
D03*
Y173819D02*
D03*
X358602Y337992D02*
D03*
Y173819D02*
D03*
D168*
X314634Y303260D02*
D03*
X337469D02*
D03*
D169*
X315815Y292630D02*
D03*
Y283181D02*
D03*
X336287Y292630D02*
D03*
Y283181D02*
D03*
D170*
X339587Y303260D02*
D03*
X312516D02*
D03*
D171*
X338602Y314480D02*
D03*
Y326095D02*
D03*
X313500Y314480D02*
D03*
Y326095D02*
D03*
D172*
X213201Y287614D02*
D03*
Y279740D02*
D03*
Y271866D02*
D03*
Y263992D02*
D03*
Y256118D02*
D03*
Y248244D02*
D03*
Y240370D02*
D03*
Y232496D02*
D03*
Y224622D02*
D03*
Y216748D02*
D03*
Y208874D02*
D03*
Y201000D02*
D03*
Y193126D02*
D03*
X298398D02*
D03*
Y201000D02*
D03*
Y208874D02*
D03*
Y216748D02*
D03*
Y224622D02*
D03*
Y232496D02*
D03*
Y240370D02*
D03*
Y248244D02*
D03*
Y256118D02*
D03*
Y263992D02*
D03*
Y271866D02*
D03*
Y279740D02*
D03*
Y287614D02*
D03*
Y295488D02*
D03*
Y303362D02*
D03*
Y311236D02*
D03*
D173*
X228232Y185567D02*
D03*
X236106D02*
D03*
X243980D02*
D03*
X251854D02*
D03*
X259728D02*
D03*
X267602D02*
D03*
X275476D02*
D03*
X283350D02*
D03*
D174*
X236902Y276197D02*
D03*
D175*
X210492Y287614D02*
D03*
X301075Y311236D02*
D03*
X210492Y279740D02*
D03*
Y271866D02*
D03*
Y263992D02*
D03*
Y256118D02*
D03*
Y248244D02*
D03*
Y240370D02*
D03*
Y232496D02*
D03*
Y224622D02*
D03*
Y216748D02*
D03*
Y208874D02*
D03*
Y201000D02*
D03*
Y193126D02*
D03*
X301106D02*
D03*
Y201000D02*
D03*
Y208874D02*
D03*
Y216748D02*
D03*
Y224622D02*
D03*
Y232496D02*
D03*
Y240370D02*
D03*
Y248244D02*
D03*
Y256118D02*
D03*
Y263992D02*
D03*
Y271866D02*
D03*
Y279740D02*
D03*
Y287614D02*
D03*
Y295488D02*
D03*
Y303362D02*
D03*
X603441Y137795D02*
D03*
X583441D02*
D03*
X603441Y374016D02*
D03*
X583441D02*
D03*
X216535Y137795D02*
D03*
X236535D02*
D03*
X216535Y374016D02*
D03*
X236535D02*
D03*
D176*
X228232Y182858D02*
D03*
X236106D02*
D03*
X243980D02*
D03*
X251854D02*
D03*
X259728D02*
D03*
X267602D02*
D03*
X275476D02*
D03*
X283350D02*
D03*
X413386Y642520D02*
D03*
X177165Y622520D02*
D03*
X413386D02*
D03*
X177165Y642520D02*
D03*
X839370D02*
D03*
X603150Y622520D02*
D03*
X839370D02*
D03*
X603150Y642520D02*
D03*
D177*
X134067Y243177D02*
D03*
X131508D02*
D03*
X128949D02*
D03*
X126390D02*
D03*
X123831D02*
D03*
X121272D02*
D03*
X118713D02*
D03*
X116154D02*
D03*
X113594D02*
D03*
X111036D02*
D03*
Y220342D02*
D03*
X113594D02*
D03*
X116154D02*
D03*
X118713D02*
D03*
X121272D02*
D03*
X123831Y220342D02*
D03*
X126390D02*
D03*
X128949D02*
D03*
X131508D02*
D03*
X134067D02*
D03*
D178*
X877693Y393701D02*
D03*
X880193D02*
D03*
X885193D02*
D03*
X887693D02*
D03*
X890193D02*
D03*
X875193D02*
D03*
X895193D02*
D03*
X910193D02*
D03*
X907693D02*
D03*
X905193D02*
D03*
X900193D02*
D03*
X897693D02*
D03*
X915193D02*
D03*
X930193D02*
D03*
X927693D02*
D03*
X925193D02*
D03*
X920193D02*
D03*
X917693D02*
D03*
X935193D02*
D03*
X940193D02*
D03*
X937693D02*
D03*
X757693D02*
D03*
X760193D02*
D03*
X765193D02*
D03*
X767693D02*
D03*
X770193D02*
D03*
X755193D02*
D03*
X775193D02*
D03*
X790193D02*
D03*
X787693D02*
D03*
X785193D02*
D03*
X780193D02*
D03*
X777693D02*
D03*
X795193D02*
D03*
X810193D02*
D03*
X807693D02*
D03*
X805193D02*
D03*
X800193D02*
D03*
X797693D02*
D03*
X815193D02*
D03*
X830193D02*
D03*
X827693D02*
D03*
X825193D02*
D03*
X820193D02*
D03*
X817693D02*
D03*
X835193D02*
D03*
X850193D02*
D03*
X847693D02*
D03*
X845193D02*
D03*
X840193D02*
D03*
X837693D02*
D03*
X855193D02*
D03*
X870193D02*
D03*
X867693D02*
D03*
X865193D02*
D03*
X860193D02*
D03*
X857693D02*
D03*
Y118110D02*
D03*
X860193D02*
D03*
X865193D02*
D03*
X867693D02*
D03*
X870193D02*
D03*
X855193D02*
D03*
X875193D02*
D03*
X890193D02*
D03*
X887693D02*
D03*
X885193D02*
D03*
X880193D02*
D03*
X877693D02*
D03*
X895193D02*
D03*
X910193D02*
D03*
X907693D02*
D03*
X905193D02*
D03*
X900193D02*
D03*
X897693D02*
D03*
X915193D02*
D03*
X930193D02*
D03*
X927693D02*
D03*
X925193D02*
D03*
X920193D02*
D03*
X917693D02*
D03*
X935193D02*
D03*
X940193D02*
D03*
X937693D02*
D03*
X837693D02*
D03*
X840193D02*
D03*
X845193D02*
D03*
X847693D02*
D03*
X850193D02*
D03*
X835193D02*
D03*
X817693D02*
D03*
X820193D02*
D03*
X825193D02*
D03*
X827693D02*
D03*
X830193D02*
D03*
X815193D02*
D03*
X797693D02*
D03*
X800193D02*
D03*
X805193D02*
D03*
X807693D02*
D03*
X810193D02*
D03*
X795193D02*
D03*
X777693D02*
D03*
X780193D02*
D03*
X785193D02*
D03*
X787693D02*
D03*
X790193D02*
D03*
X775193D02*
D03*
X757693D02*
D03*
X760193D02*
D03*
X765193D02*
D03*
X767693D02*
D03*
X770193D02*
D03*
X755193D02*
D03*
X79783D02*
D03*
X84784D02*
D03*
X89784D02*
D03*
X94784D02*
D03*
X82284D02*
D03*
D03*
X92283D02*
D03*
X79783Y819685D02*
D03*
X84784D02*
D03*
X89784D02*
D03*
X94784D02*
D03*
X82284D02*
D03*
D03*
X92283D02*
D03*
X936752D02*
D03*
X931752D02*
D03*
X926752D02*
D03*
X921752D02*
D03*
X934252D02*
D03*
D03*
X924252D02*
D03*
X936752Y425984D02*
D03*
X931752D02*
D03*
X926752D02*
D03*
X921752D02*
D03*
X934252D02*
D03*
D03*
X924252D02*
D03*
X735193Y118110D02*
D03*
X730193D02*
D03*
X727693D02*
D03*
X725193D02*
D03*
X750193D02*
D03*
X747693D02*
D03*
X745193D02*
D03*
X740193D02*
D03*
X747693Y393701D02*
D03*
X727693D02*
D03*
X737693D02*
D03*
D03*
X750193D02*
D03*
X745193D02*
D03*
X740193D02*
D03*
X735193D02*
D03*
X730193D02*
D03*
X725193D02*
D03*
X737693Y118110D02*
D03*
X79783Y393701D02*
D03*
X84784D02*
D03*
X89784D02*
D03*
X94784D02*
D03*
X82284D02*
D03*
D03*
X92283D02*
D03*
X79783Y425984D02*
D03*
X84784D02*
D03*
X89784D02*
D03*
X94784D02*
D03*
X82284D02*
D03*
D03*
X92283D02*
D03*
X196331Y819685D02*
D03*
D03*
X193831D02*
D03*
D03*
X191331D02*
D03*
D03*
X188831D02*
D03*
D03*
X186331D02*
D03*
D03*
X183831D02*
D03*
D03*
X181331D02*
D03*
D03*
X409221D02*
D03*
D03*
X406720D02*
D03*
D03*
X404220D02*
D03*
D03*
X401721D02*
D03*
D03*
X399220D02*
D03*
D03*
X396721D02*
D03*
D03*
X394220D02*
D03*
D03*
X331665D02*
D03*
D03*
X334165D02*
D03*
D03*
X336665D02*
D03*
D03*
X339165D02*
D03*
D03*
X341665D02*
D03*
D03*
X344165D02*
D03*
D03*
X346665D02*
D03*
D03*
X258886D02*
D03*
X256386D02*
D03*
D03*
X253886D02*
D03*
D03*
X251386D02*
D03*
D03*
X248886D02*
D03*
D03*
X246386D02*
D03*
D03*
X243886D02*
D03*
D03*
X622315D02*
D03*
D03*
X619815D02*
D03*
D03*
X617315D02*
D03*
D03*
X614815D02*
D03*
D03*
X612315D02*
D03*
D03*
X609815D02*
D03*
D03*
X607315D02*
D03*
D03*
X835205D02*
D03*
D03*
X832705D02*
D03*
D03*
X830205D02*
D03*
D03*
X827705D02*
D03*
D03*
X825205D02*
D03*
D03*
X822705D02*
D03*
D03*
X820205D02*
D03*
D03*
X757650D02*
D03*
D03*
X760150D02*
D03*
D03*
X762650D02*
D03*
D03*
X765150D02*
D03*
D03*
X767650D02*
D03*
D03*
X770150D02*
D03*
D03*
X772650D02*
D03*
D03*
X684870D02*
D03*
X682370D02*
D03*
D03*
X679870D02*
D03*
D03*
X677370D02*
D03*
D03*
X674870D02*
D03*
D03*
X672370D02*
D03*
D03*
X669870D02*
D03*
D03*
X622315Y425984D02*
D03*
D03*
X619815D02*
D03*
D03*
X617315D02*
D03*
D03*
X614815D02*
D03*
D03*
X612315D02*
D03*
D03*
X609815D02*
D03*
D03*
X607315D02*
D03*
D03*
X835205D02*
D03*
D03*
X832705D02*
D03*
D03*
X830205D02*
D03*
D03*
X827705D02*
D03*
D03*
X825205D02*
D03*
D03*
X822705D02*
D03*
D03*
X820205D02*
D03*
D03*
X757650D02*
D03*
D03*
X760150D02*
D03*
D03*
X762650D02*
D03*
D03*
X765150D02*
D03*
D03*
X767650D02*
D03*
D03*
X770150D02*
D03*
D03*
X772650D02*
D03*
D03*
X684870D02*
D03*
X682370D02*
D03*
D03*
X679870D02*
D03*
D03*
X677370D02*
D03*
D03*
X674870D02*
D03*
D03*
X672370D02*
D03*
D03*
X669870D02*
D03*
D03*
X243886D02*
D03*
D03*
X246386D02*
D03*
D03*
X248886D02*
D03*
D03*
X251386D02*
D03*
D03*
X253886D02*
D03*
D03*
X256386D02*
D03*
D03*
X258886D02*
D03*
X346665D02*
D03*
D03*
X344165D02*
D03*
D03*
X341665D02*
D03*
D03*
X339165D02*
D03*
D03*
X336665D02*
D03*
D03*
X334165D02*
D03*
D03*
X331665D02*
D03*
D03*
X518268Y819685D02*
D03*
X498268D02*
D03*
X508268D02*
D03*
D03*
X520768D02*
D03*
X515768D02*
D03*
X510768D02*
D03*
X505768D02*
D03*
X500768D02*
D03*
X495768D02*
D03*
X518268Y425984D02*
D03*
X498268D02*
D03*
X508268D02*
D03*
D03*
X520768D02*
D03*
X515768D02*
D03*
X510768D02*
D03*
X505768D02*
D03*
X500768D02*
D03*
X495768D02*
D03*
X394220D02*
D03*
D03*
X396721D02*
D03*
D03*
X399220D02*
D03*
D03*
X401721D02*
D03*
D03*
X404220D02*
D03*
D03*
X406720D02*
D03*
D03*
X409221D02*
D03*
D03*
X181331D02*
D03*
D03*
X183831D02*
D03*
D03*
X186331D02*
D03*
D03*
X188831D02*
D03*
D03*
X191331D02*
D03*
D03*
X193831D02*
D03*
D03*
X196331D02*
D03*
D03*
X409988Y118110D02*
D03*
X397488Y393701D02*
D03*
X402488D02*
D03*
X407488D02*
D03*
X412488D02*
D03*
X417488D02*
D03*
X422488D02*
D03*
X409988D02*
D03*
D03*
X399988D02*
D03*
X419988D02*
D03*
X412488Y118110D02*
D03*
X417488D02*
D03*
X419988D02*
D03*
X422488D02*
D03*
X397488D02*
D03*
X399988D02*
D03*
X402488D02*
D03*
X407488D02*
D03*
X330772D02*
D03*
D03*
X328272D02*
D03*
D03*
X325772D02*
D03*
D03*
X323272D02*
D03*
D03*
X320772D02*
D03*
D03*
X318272D02*
D03*
D03*
X315772D02*
D03*
D03*
X243709D02*
D03*
D03*
X241209D02*
D03*
D03*
X238709D02*
D03*
D03*
X248709D02*
D03*
D03*
X251209D02*
D03*
D03*
X253709D02*
D03*
D03*
X246209D02*
D03*
X176646D02*
D03*
D03*
X174146D02*
D03*
D03*
X171646D02*
D03*
D03*
X169146D02*
D03*
D03*
X166646D02*
D03*
D03*
X164146D02*
D03*
D03*
X161646D02*
D03*
D03*
X330772Y393701D02*
D03*
D03*
X328272D02*
D03*
D03*
X325772D02*
D03*
D03*
X323272D02*
D03*
D03*
X320772D02*
D03*
D03*
X318272D02*
D03*
D03*
X315772D02*
D03*
D03*
X243709D02*
D03*
D03*
X241209D02*
D03*
D03*
X238709D02*
D03*
D03*
X248709D02*
D03*
D03*
X251209D02*
D03*
D03*
X253709D02*
D03*
D03*
X246209D02*
D03*
X176646D02*
D03*
D03*
X174146D02*
D03*
D03*
X171646D02*
D03*
D03*
X169146D02*
D03*
D03*
X166646D02*
D03*
D03*
X164146D02*
D03*
D03*
X161646D02*
D03*
D03*
X489350D02*
D03*
D03*
X491850D02*
D03*
D03*
X494350D02*
D03*
D03*
X496850D02*
D03*
D03*
X499350D02*
D03*
D03*
X501850D02*
D03*
D03*
X504350D02*
D03*
D03*
X573913D02*
D03*
X581413D02*
D03*
D03*
X578913D02*
D03*
D03*
X576413D02*
D03*
D03*
X566413D02*
D03*
D03*
X568913D02*
D03*
D03*
X571413D02*
D03*
D03*
X643476D02*
D03*
D03*
X645976D02*
D03*
D03*
X648476D02*
D03*
D03*
X650976D02*
D03*
D03*
X653476D02*
D03*
D03*
X655976D02*
D03*
D03*
X658476D02*
D03*
D03*
X489350Y118110D02*
D03*
D03*
X491850D02*
D03*
D03*
X494350D02*
D03*
D03*
X496850D02*
D03*
D03*
X499350D02*
D03*
D03*
X501850D02*
D03*
D03*
X504350D02*
D03*
D03*
X573913D02*
D03*
X581413D02*
D03*
D03*
X578913D02*
D03*
D03*
X576413D02*
D03*
D03*
X566413D02*
D03*
D03*
X568913D02*
D03*
D03*
X571413D02*
D03*
D03*
X643476D02*
D03*
D03*
X645976D02*
D03*
D03*
X648476D02*
D03*
D03*
X650976D02*
D03*
D03*
X653476D02*
D03*
D03*
X655976D02*
D03*
D03*
X658476D02*
D03*
D03*
D179*
X613441Y137795D02*
D03*
X623441D02*
D03*
X633441D02*
D03*
X643441D02*
D03*
X653441D02*
D03*
X663441D02*
D03*
X673441D02*
D03*
X573441D02*
D03*
X563441D02*
D03*
X553441D02*
D03*
X543441D02*
D03*
X533441D02*
D03*
X523441D02*
D03*
X513441D02*
D03*
X613441Y374016D02*
D03*
X623441D02*
D03*
X633441D02*
D03*
X643441D02*
D03*
X653441D02*
D03*
X663441D02*
D03*
X673441D02*
D03*
X573441D02*
D03*
X563441D02*
D03*
X553441D02*
D03*
X543441D02*
D03*
X533441D02*
D03*
X523441D02*
D03*
X513441D02*
D03*
X413386Y652520D02*
D03*
Y662520D02*
D03*
Y672520D02*
D03*
Y682520D02*
D03*
Y692520D02*
D03*
Y702520D02*
D03*
Y712520D02*
D03*
X177165Y612520D02*
D03*
Y602520D02*
D03*
Y592520D02*
D03*
Y582520D02*
D03*
Y572520D02*
D03*
Y562520D02*
D03*
Y552520D02*
D03*
X413386Y612520D02*
D03*
Y602520D02*
D03*
Y592520D02*
D03*
Y582520D02*
D03*
Y572520D02*
D03*
Y562520D02*
D03*
Y552520D02*
D03*
X177165Y652520D02*
D03*
Y662520D02*
D03*
Y672520D02*
D03*
Y682520D02*
D03*
Y692520D02*
D03*
Y702520D02*
D03*
Y712520D02*
D03*
X839370Y652520D02*
D03*
Y662520D02*
D03*
Y672520D02*
D03*
Y682520D02*
D03*
Y692520D02*
D03*
Y702520D02*
D03*
Y712520D02*
D03*
X603150Y612520D02*
D03*
Y602520D02*
D03*
Y592520D02*
D03*
Y582520D02*
D03*
Y572520D02*
D03*
Y562520D02*
D03*
Y552520D02*
D03*
X839370Y612520D02*
D03*
Y602520D02*
D03*
Y592520D02*
D03*
Y582520D02*
D03*
Y572520D02*
D03*
Y562520D02*
D03*
Y552520D02*
D03*
X603150Y652520D02*
D03*
Y662520D02*
D03*
Y672520D02*
D03*
Y682520D02*
D03*
Y692520D02*
D03*
Y702520D02*
D03*
Y712520D02*
D03*
X206535Y137795D02*
D03*
X196535D02*
D03*
X186535D02*
D03*
X176535D02*
D03*
X166535D02*
D03*
X156535D02*
D03*
X146535D02*
D03*
X246535D02*
D03*
X256535D02*
D03*
X266535D02*
D03*
X276535D02*
D03*
X286535D02*
D03*
X296535D02*
D03*
X306535D02*
D03*
X206535Y374016D02*
D03*
X196535D02*
D03*
X186535D02*
D03*
X176535D02*
D03*
X166535D02*
D03*
X156535D02*
D03*
X146535D02*
D03*
X246535D02*
D03*
X256535D02*
D03*
X266535D02*
D03*
X276535D02*
D03*
X286535D02*
D03*
X296535D02*
D03*
X306535D02*
D03*
D180*
X445961Y374016D02*
D03*
X701866D02*
D03*
X445961Y137795D02*
D03*
X701866D02*
D03*
X118110Y800000D02*
D03*
Y445669D02*
D03*
X472441Y800000D02*
D03*
Y445669D02*
D03*
X177165Y740945D02*
D03*
Y485039D02*
D03*
X413386Y740945D02*
D03*
Y485039D02*
D03*
X544095Y800000D02*
D03*
Y445669D02*
D03*
X898425Y800000D02*
D03*
Y445669D02*
D03*
X603150Y740945D02*
D03*
Y485039D02*
D03*
X839370Y740945D02*
D03*
Y485039D02*
D03*
X374016Y137795D02*
D03*
X118110D02*
D03*
X374016Y374016D02*
D03*
X118110D02*
D03*
D181*
X683579Y321701D02*
D03*
X338189Y463980D02*
D03*
X764173D02*
D03*
X136398Y190110D02*
D03*
D182*
X688500Y319614D02*
D03*
Y352134D02*
D03*
X711925Y353551D02*
D03*
Y318197D02*
D03*
X131476Y192197D02*
D03*
Y159677D02*
D03*
X108051Y158260D02*
D03*
Y193614D02*
D03*
D183*
X141732Y800000D02*
D03*
X157480D02*
D03*
X173228D02*
D03*
X419075Y781555D02*
D03*
Y771713D02*
D03*
X364173Y805157D02*
D03*
Y795157D02*
D03*
Y785157D02*
D03*
Y775157D02*
D03*
X381575Y435386D02*
D03*
Y443260D02*
D03*
Y451134D02*
D03*
Y459008D02*
D03*
X567717Y800000D02*
D03*
X583465D02*
D03*
X599213D02*
D03*
X845059Y781555D02*
D03*
Y771713D02*
D03*
X790158Y805157D02*
D03*
Y795157D02*
D03*
Y785157D02*
D03*
Y775157D02*
D03*
X807559Y435386D02*
D03*
Y443260D02*
D03*
Y451134D02*
D03*
Y459008D02*
D03*
D184*
X430575Y805634D02*
D03*
Y800634D02*
D03*
X425575D02*
D03*
Y805634D02*
D03*
X420575D02*
D03*
Y800634D02*
D03*
X435575D02*
D03*
Y805634D02*
D03*
X440575D02*
D03*
Y800634D02*
D03*
X856559Y805634D02*
D03*
Y800634D02*
D03*
X851559D02*
D03*
Y805634D02*
D03*
X846559D02*
D03*
Y800634D02*
D03*
X861559D02*
D03*
Y805634D02*
D03*
X866559D02*
D03*
Y800634D02*
D03*
D185*
X334685Y435634D02*
D03*
X370039D02*
D03*
X368622Y459059D02*
D03*
X336102D02*
D03*
X760669Y435634D02*
D03*
X796024D02*
D03*
X794606Y459059D02*
D03*
X762087D02*
D03*
D186*
X469291Y773425D02*
D03*
Y649409D02*
D03*
X121260Y472244D02*
D03*
Y596260D02*
D03*
X121260Y649409D02*
D03*
Y773425D02*
D03*
X895276D02*
D03*
Y649409D02*
D03*
X547244Y472244D02*
D03*
Y596260D02*
D03*
X547244Y649409D02*
D03*
Y773425D02*
D03*
D187*
X446850Y676968D02*
D03*
Y690748D02*
D03*
Y704528D02*
D03*
Y718307D02*
D03*
Y732087D02*
D03*
Y745866D02*
D03*
X460630Y676968D02*
D03*
Y690748D02*
D03*
Y704528D02*
D03*
Y718307D02*
D03*
Y732087D02*
D03*
Y745866D02*
D03*
X143701Y568701D02*
D03*
Y554921D02*
D03*
Y541142D02*
D03*
Y527362D02*
D03*
Y513583D02*
D03*
Y499803D02*
D03*
X129921Y568701D02*
D03*
Y554921D02*
D03*
Y541142D02*
D03*
Y527362D02*
D03*
Y513583D02*
D03*
Y499803D02*
D03*
X143701Y745866D02*
D03*
Y732087D02*
D03*
Y718307D02*
D03*
X143701Y704528D02*
D03*
X143701Y690748D02*
D03*
Y676968D02*
D03*
X129921Y745866D02*
D03*
X129921Y732087D02*
D03*
Y718307D02*
D03*
Y704528D02*
D03*
X129921Y690748D02*
D03*
Y676968D02*
D03*
X872835Y676968D02*
D03*
Y690748D02*
D03*
Y704528D02*
D03*
Y718307D02*
D03*
Y732087D02*
D03*
Y745866D02*
D03*
X886614Y676968D02*
D03*
Y690748D02*
D03*
Y704528D02*
D03*
Y718307D02*
D03*
Y732087D02*
D03*
Y745866D02*
D03*
X569685Y568701D02*
D03*
Y554921D02*
D03*
Y541142D02*
D03*
Y527362D02*
D03*
Y513583D02*
D03*
Y499803D02*
D03*
X555905Y568701D02*
D03*
Y554921D02*
D03*
Y541142D02*
D03*
Y527362D02*
D03*
Y513583D02*
D03*
Y499803D02*
D03*
X569685Y745866D02*
D03*
Y732087D02*
D03*
Y718307D02*
D03*
X569685Y704528D02*
D03*
X569685Y690748D02*
D03*
Y676968D02*
D03*
X555905Y745866D02*
D03*
X555905Y732087D02*
D03*
Y718307D02*
D03*
Y704528D02*
D03*
X555905Y690748D02*
D03*
Y676968D02*
D03*
D188*
X236508Y272260D02*
D03*
X232965D02*
D03*
X240051D02*
D03*
X236508Y279740D02*
D03*
X232965D02*
D03*
X240051D02*
D03*
Y276197D02*
D03*
X232965D02*
D03*
X236508D02*
D03*
M02*
