M48
;Layer_Color=9474304
;FILE_FORMAT=2:5
INCH,TZ
;TYPE=PLATED
T2F00S00C0.01968
;TYPE=NON_PLATED
T10F00S00C0.02559
%
G90
G05
T02
G00X106870Y158260
M15
G01X109232
M16
G00X130295Y159677
M15
G01X132658
M16
G00X130295Y192197
M15
G01X132658
M16
G00X106870Y193614
M15
G01X109232
M16
G00X334685Y434453
M15
G01Y436815
M16
G00X336102Y457878
M15
G01Y460240
M16
G00X368622Y457878
M15
G01Y460240
M16
G00X370039Y434453
M15
G01Y436815
M16
G00X760669Y434453
M15
G01Y436815
M16
G00X762087Y457878
M15
G01Y460240
M16
G00X713106Y353551
M15
G01X710744
M16
G00X689681Y352134
M15
G01X687319
M16
G00X689681Y319614
M15
G01X687319
M16
G00X713106Y318197
M15
G01X710744
M16
G00X796024Y434453
M15
G01Y436815
M16
G00X794606Y457878
M15
G01Y460240
M16
T10
G00X136399Y162646
M15
G01Y161205
M16
G00X365654Y463982
M15
G01X367094
M16
G00X683577Y349165
M15
G01Y350606
M16
G00X791638Y463982
M15
G01X793079
M16
M17
M30
